<?xml version="1.0" encoding="iso-8859-1"?>
<!-- Uploaded to: SVG Repo, www.svgrepo.com, Generator: SVG Repo Mixer Tools -->
<svg height="800px" width="800px" version="1.1" id="Layer_1" xmlns="http://www.w3.org/2000/svg" xmlns:xlink="http://www.w3.org/1999/xlink" 
	 viewBox="0 0 512 512" xml:space="preserve">
<g>
	<polygon style="fill:#F0C838;" points="349.064,216.404 283.396,150.064 0,433.494 66,499.502 	"/>
	<polygon style="fill:#F0C838;" points="349.064,216.404 283.396,150.064 0,433.494 66,499.502 	"/>
</g>
<polygon style="fill:#E79C25;" points="349.064,216.404 318.699,185.729 35.465,468.962 66,499.502 "/>
<path style="fill:#6F6F6F;" d="M512,223.852l-51.994-52l-15.15,7.442l-25.489-25.492l7.441-15.152c0,0-56.705-56.712-92.916-92.927
	c-58.852-58.859-160.72-21.585-160.72-21.585s75.658,46.346,102.94,133.21l65.675,66.333l15.15-7.442l25.489,25.492l-7.441,15.152
	l51.994,52L512,223.852z"/>
<path style="fill:#444444;" d="M512,223.852l-51.994-52l-15.15,7.442l-25.489-25.492l7.441-15.152c0,0-12.996-12.997-30.514-30.517
	l-84.875,84.875l30.368,30.672l15.15-7.442l25.489,25.492l-7.441,15.152l51.994,52L512,223.852z"/>
</svg>