<svg version="1.1" id="Layer_1" xmlns="http://www.w3.org/2000/svg" xmlns:xlink="http://www.w3.org/1999/xlink" x="0px" y="0px"
	 width="100%" viewBox="0 0 500 500" enable-background="new 0 0 500 500" xml:space="preserve">
<path fill="#000000" opacity="1.000000" stroke="none" 
	d="
M328.000000,501.000000 
	C218.666687,501.000000 109.833382,501.000000 1.000058,501.000000 
	C1.000039,334.333405 1.000039,167.666794 1.000019,1.000148 
	C167.666565,1.000099 334.333130,1.000099 500.999756,1.000049 
	C500.999847,167.666519 500.999847,334.333038 500.999939,500.999786 
	C443.500000,501.000000 386.000000,501.000000 328.000000,501.000000 
M272.995300,137.011581 
	C272.995300,137.011581 273.089508,136.990433 272.821259,136.333206 
	C271.537933,135.857727 270.254578,135.382248 268.991577,135.012741 
	C268.991577,135.012741 269.097626,134.992798 268.814178,134.335098 
	C266.560120,133.294968 264.306091,132.254822 261.334991,131.026337 
	C256.839844,130.019135 252.126114,127.642120 247.899353,128.316666 
	C241.075455,129.405685 234.346848,132.024445 228.209229,136.993347 
	C222.457092,140.299500 216.704941,143.605652 210.942917,146.962265 
	C210.942917,146.962265 210.988754,146.939011 210.527130,146.959641 
	C210.527130,146.959641 210.066437,146.924088 209.990509,146.073990 
	C209.973740,137.709091 209.971283,137.721115 201.232605,135.933243 
	C200.461517,135.775467 199.769638,135.265076 199.008453,135.019012 
	C192.138336,132.797958 186.022232,137.102753 186.029846,144.085220 
	C186.036697,150.366791 185.967880,156.648453 185.234573,162.998703 
	C184.082550,163.703384 182.930511,164.408081 181.155548,165.365326 
	C174.073166,169.551132 166.990784,173.736923 159.281036,178.229187 
	C152.055161,182.388092 149.453339,189.628403 153.458099,195.776825 
	C156.311676,200.157822 161.806534,203.665100 169.929001,199.949539 
	C170.010803,221.043228 170.092606,242.136932 170.070496,263.503235 
	C170.070496,263.503235 170.178452,263.774261 170.029449,264.722229 
	C170.376358,268.236572 170.723251,271.750946 171.036331,275.647064 
	C171.036331,275.647064 171.163330,276.008698 171.045135,276.837097 
	C171.670685,279.576416 172.296234,282.315765 173.058212,285.487915 
	C173.058212,285.487915 173.233368,285.906616 173.215576,286.548767 
	C173.785660,287.385834 174.355743,288.222900 175.016449,289.761444 
	C176.971512,292.195251 178.926575,294.629028 181.152328,297.595917 
	C181.752777,298.109467 182.353241,298.623016 183.193954,299.737335 
	C184.443893,300.507263 185.693832,301.277222 186.972626,302.040344 
	C186.972626,302.040344 186.972748,302.070038 187.226791,302.639221 
	C188.160049,303.027252 189.093292,303.415283 190.668091,304.158478 
	C194.070450,305.377441 197.472824,306.596405 201.539597,307.989288 
	C202.362946,308.260345 203.186295,308.531403 204.934540,308.956665 
	C234.665085,308.975525 264.395660,309.007538 294.126129,308.970093 
	C295.451202,308.968414 296.775482,308.335510 298.906342,308.023804 
	C302.287231,307.053284 305.668121,306.082733 309.770996,305.004547 
	C316.613953,301.669434 322.473175,297.249115 326.628845,289.830780 
	C328.031769,284.563171 329.434723,279.295532 330.964355,273.278076 
	C330.912231,272.521698 330.860138,271.765320 330.952911,270.612762 
	C330.952911,270.612762 330.908722,270.193268 331.752167,269.829712 
	C331.859131,257.094482 331.955841,244.359161 332.076172,231.624054 
	C332.179260,220.713242 332.309448,209.802658 332.897797,199.461899 
	C338.553375,202.151459 343.360657,201.634216 347.404236,196.835541 
	C350.214264,193.500793 351.576141,189.324387 347.872955,185.313721 
	C345.348083,182.579208 343.335175,179.092682 340.317749,177.142380 
	C329.499542,170.150040 318.406342,163.575089 307.310913,157.022110 
	C297.561829,151.264236 287.670380,145.747330 277.932526,139.486725 
	C277.560150,139.377808 277.187744,139.268890 276.492126,139.000870 
	C276.492126,139.000870 276.131866,138.995682 275.869019,138.367111 
	C274.903931,137.883896 273.938873,137.400681 272.995300,137.011581 
M353.005066,369.700653 
	C354.008362,370.854218 355.011658,372.007812 356.105682,373.564697 
	C356.257843,373.824463 356.484009,373.965607 357.077484,374.654968 
	C358.737396,375.386963 360.397339,376.118958 362.828156,376.988525 
	C363.867828,376.940735 364.907532,376.892944 366.684021,376.970673 
	C367.211517,376.223175 368.140320,375.501770 368.190948,374.723297 
	C368.339722,372.433746 368.089478,370.121613 368.085388,367.818146 
	C368.066010,356.986694 368.076782,346.155151 368.076782,335.144104 
	C365.598846,335.144104 362.802887,335.144104 359.254608,335.274475 
	C358.502106,337.132263 357.211243,338.958618 357.100677,340.853851 
	C356.799500,346.015564 356.997162,351.206360 356.997162,357.538757 
	C350.791168,349.968842 345.420410,343.417725 339.673248,336.157745 
	C336.275787,335.639496 332.878326,335.121277 329.006561,334.530701 
	C329.006561,347.826050 329.123444,360.059418 328.936707,372.288177 
	C328.879242,376.052246 330.230560,377.257141 333.863617,377.088501 
	C337.487244,376.920258 341.068970,377.297668 341.012360,372.032288 
	C340.955414,366.731537 341.047791,361.429230 341.724609,356.299377 
	C344.362701,359.197815 347.000763,362.096252 350.012939,365.584747 
	C350.998199,366.749695 351.983490,367.914612 352.981171,369.015503 
	C352.981171,369.015503 352.916473,369.024170 353.005066,369.700653 
M306.978851,375.185364 
	C306.978851,372.600128 306.978851,370.014862 306.978851,367.181763 
	C300.700592,367.181763 294.819794,367.181763 288.440308,366.967682 
	C288.270569,366.905060 288.100830,366.842438 287.936096,365.884399 
	C287.944031,356.965881 288.007050,348.046722 287.898743,339.129608 
	C287.883026,337.834991 287.047028,336.550293 285.766693,335.069458 
	C284.280212,335.047394 282.755676,335.231232 281.314423,334.964630 
	C277.012604,334.168884 275.998383,336.591400 276.016998,340.114777 
	C276.062683,348.753845 276.131073,357.392792 276.069122,366.770996 
	C276.063965,368.564667 276.058807,370.358307 276.068115,372.697144 
	C276.103668,373.058258 276.139221,373.419403 275.610962,374.106110 
	C275.753326,374.783752 275.895691,375.461426 276.483398,376.875000 
	C284.962280,376.931091 293.441376,377.037415 301.919861,377.000092 
	C303.578918,376.992798 305.235535,376.429016 306.978851,375.185364 
M321.002411,376.005157 
	C321.002411,376.005157 321.036743,376.052948 321.783020,375.598877 
	C321.856842,373.124512 321.983948,370.650421 321.994965,368.175781 
	C322.037689,358.585114 321.191650,348.885895 322.392456,339.445404 
	C323.078644,334.050537 321.934509,334.048462 317.118713,335.017975 
	C314.811493,335.566345 312.504242,336.114716 309.981812,337.641968 
	C310.053223,347.856964 310.124634,358.071960 310.029297,369.101196 
	C309.985260,376.804199 310.285400,377.102753 318.032349,376.969208 
	C318.682739,376.957977 319.331604,376.860748 320.506409,376.861420 
	C320.691345,376.576141 320.876282,376.290863 321.002411,376.005157 
M194.065201,346.053650 
	C194.065201,346.053650 194.088440,346.043549 194.842529,345.707550 
	C199.248154,344.468353 203.564148,344.151733 207.533936,347.029480 
	C211.527374,349.924347 213.399979,346.316559 215.047913,344.049744 
	C215.672928,343.190033 214.531204,340.077759 213.307159,339.004211 
	C206.907898,333.391815 194.373932,333.044220 186.403595,338.009399 
	C186.241013,338.053375 186.078415,338.097321 185.496857,338.052094 
	C185.198868,338.166351 185.039322,338.382660 184.402924,339.051239 
	C176.955765,346.501587 175.161728,355.389038 178.830154,364.585632 
	C183.794312,377.030548 203.406296,383.303833 216.759903,371.483734 
	C216.494568,373.180634 216.229233,374.877533 215.896790,377.003601 
	C218.411407,377.003601 220.430634,376.762299 222.367477,377.058960 
	C225.439453,377.529419 228.116974,376.363708 228.576813,373.680786 
	C229.583954,367.804657 233.588745,367.929321 237.869553,367.966827 
	C240.689056,367.991547 243.508987,367.971497 246.185211,367.971497 
	C251.584457,378.477844 249.200577,376.760529 257.975861,377.014069 
	C261.473083,377.115082 262.516510,375.859833 261.036957,372.596588 
	C255.683533,360.789154 250.455002,348.923340 244.914124,337.204926 
	C244.249634,335.799561 241.879242,334.238861 240.441055,334.364929 
	C237.596436,334.614258 233.870956,335.184326 232.294128,337.094666 
	C229.935028,339.952850 229.154236,344.098389 227.633163,347.666931 
	C224.764359,354.397278 221.900620,361.131409 218.861115,367.784576 
	C218.571991,368.417450 217.055267,368.489441 215.774307,368.224548 
	C212.524521,363.996094 209.263184,362.831421 204.122986,366.131805 
	C198.966614,369.442535 194.602997,367.592529 191.018829,362.575287 
	C187.053329,357.024231 189.414185,352.078644 192.712738,347.045502 
	C193.158478,346.721649 193.604233,346.397766 194.065201,346.053650 
M142.447235,335.989899 
	C142.283157,336.040497 142.119064,336.091095 141.273315,336.299011 
	C139.198059,337.785187 136.879089,339.026978 135.095367,340.805542 
	C130.584351,345.303467 130.334549,351.046265 129.803619,357.136200 
	C128.954147,366.879822 140.371262,377.712799 150.698502,377.178436 
	C153.963165,376.805695 157.354248,376.874695 160.470367,375.982941 
	C173.176712,372.346619 177.957672,360.540497 173.861816,348.913910 
	C168.682587,334.212036 156.202454,333.312256 142.984375,335.969666 
	C142.984375,335.969666 142.961838,335.966400 142.447235,335.989899 
M129.825317,375.364380 
	C130.262100,367.058746 130.262085,367.061829 121.933243,367.032471 
	C117.986488,367.018555 114.039787,366.990265 110.011246,366.040039 
	C110.004936,357.464661 110.050705,348.888611 109.942589,340.314545 
	C109.923904,338.833130 109.252556,337.360016 108.337852,335.277954 
	C105.080589,335.277954 101.823326,335.277954 98.016190,335.277954 
	C98.016190,345.292694 97.947334,355.009308 98.051109,364.724060 
	C98.090927,368.451294 98.524597,372.174286 99.237907,376.689819 
	C108.573143,376.785950 117.908318,376.904327 127.243759,376.931396 
	C127.911606,376.933350 128.581390,376.266724 129.825317,375.364380 
M387.013824,349.236298 
	C387.013824,344.620300 387.013824,340.004272 387.013824,335.277191 
	C383.175537,335.277191 379.783661,335.277191 375.853394,335.277191 
	C375.853394,346.704254 375.853394,357.844238 375.207672,369.395447 
	C375.277283,375.944672 376.419250,376.778656 382.857391,377.087006 
	C388.830200,377.373077 387.892273,373.420929 387.993378,369.878540 
	C388.035919,368.387817 387.772858,366.750122 388.309540,365.452545 
	C388.800446,364.265747 390.048950,363.156555 391.237885,362.610779 
	C391.710602,362.393829 393.129303,363.629303 393.758636,364.471527 
	C395.989105,367.456696 397.948486,370.649353 400.254761,373.570618 
	C401.215698,374.787842 402.747314,376.254150 404.094452,376.333496 
	C407.872345,376.555878 411.689301,376.115082 415.954712,375.914001 
	C411.254974,369.695984 406.933228,363.588409 402.179749,357.837708 
	C399.404755,354.480560 400.313232,352.225525 402.947296,349.527252 
	C407.057739,345.316559 410.928925,340.872284 414.984467,336.436218 
	C406.905334,332.457367 398.764801,335.915588 393.858337,344.293152 
	C392.427582,346.736084 389.235504,348.147461 387.013824,349.236298 
z"/>
<path fill="#DE6C2E" opacity="1.000000" stroke="none" 
	d="
M169.823395,199.017288 
	C161.806534,203.665100 156.311676,200.157822 153.458099,195.776825 
	C149.453339,189.628403 152.055161,182.388092 159.851227,178.268738 
	C161.198364,178.250336 162.174622,178.475616 162.721512,178.090759 
	C168.378616,174.109863 170.341904,173.984497 176.853638,180.332825 
	C179.887619,183.290649 183.328537,185.873337 186.789703,188.338638 
	C190.135132,190.721542 194.017242,192.399902 197.179596,194.980774 
	C203.742645,200.337036 209.705322,206.467392 216.513718,211.463303 
	C218.839645,213.170044 219.996689,214.317871 220.135620,217.056427 
	C220.199799,218.321594 221.310532,219.533676 221.946762,220.769821 
	C222.434860,220.658752 222.922974,220.547699 223.411087,220.436630 
	C223.616913,218.733688 223.629852,216.979401 224.066895,215.338013 
	C225.127335,211.355453 224.327209,206.550385 228.908417,204.397461 
	C228.339691,205.884903 227.437912,206.917847 227.105179,208.109650 
	C225.047668,215.479309 224.881256,222.667038 228.843369,229.653748 
	C229.632156,231.044662 229.790222,233.987061 228.889969,234.941620 
	C224.236893,239.875351 219.145264,244.395493 214.157074,248.802521 
	C214.087540,248.371674 214.067520,248.198151 214.097260,247.982193 
	C214.147049,247.939758 213.976517,247.958923 213.599136,247.956055 
	C212.040710,247.496826 210.046631,247.295242 209.810822,246.542679 
	C208.302887,241.730560 207.181458,236.797318 205.968842,231.574799 
	C206.150482,230.058838 206.296173,228.871994 206.441849,227.685150 
	C206.586349,228.233139 206.730865,228.781143 206.875366,229.329147 
	C202.957733,232.225357 199.040100,235.121567 195.100067,237.678055 
	C195.076584,236.884460 195.075485,236.430603 195.238525,235.838287 
	C195.614029,235.503983 195.797974,235.285049 195.976837,235.021255 
	C195.999222,234.999466 196.042419,234.954346 196.217209,234.824249 
	C196.612915,234.503845 196.809311,234.290909 197.218018,233.811035 
	C198.089828,231.804581 199.777496,229.146194 199.174561,228.438004 
	C196.774323,225.618835 193.764420,223.270004 190.782394,221.007843 
	C187.417633,218.455353 183.283585,216.688477 180.517883,213.641541 
	C177.957123,210.820419 175.451630,209.642365 171.772964,209.581009 
	C171.027832,205.810776 170.425613,202.414032 169.823395,199.017288 
M212.501068,246.470520 
	C212.501068,246.470520 212.517563,246.513596 212.501068,246.470520 
M216.464844,245.491791 
	C216.464844,245.491791 216.506958,245.475357 216.464844,245.491791 
M218.469055,243.495743 
	C218.469055,243.495743 218.507080,243.481903 218.469055,243.495743 
z"/>
<path fill="#F29A4A" opacity="1.000000" stroke="none" 
	d="
M276.131866,138.995682 
	C276.131866,138.995682 276.492126,139.000870 276.779541,139.286041 
	C277.275940,139.824615 277.534241,140.008881 277.841827,140.123993 
	C287.670380,145.747330 297.561829,151.264236 307.310913,157.022110 
	C318.406342,163.575089 329.499542,170.150040 340.317749,177.142380 
	C343.335175,179.092682 345.348083,182.579208 347.872955,185.313721 
	C351.576141,189.324387 350.214264,193.500793 347.404236,196.835541 
	C343.360657,201.634216 338.553375,202.151459 332.323120,199.077728 
	C331.351410,201.470200 330.954376,204.246826 330.195129,207.002609 
	C328.506592,204.648163 327.180267,202.314560 325.913818,199.649261 
	C324.989624,198.250549 324.005554,197.183548 322.687012,196.099579 
	C321.906464,196.066345 321.460449,196.050064 320.983093,195.674164 
	C318.968353,192.877075 316.984894,190.439621 315.000732,188.001068 
	C315.000000,188.000000 314.997559,187.998535 314.964783,187.589981 
	C314.667389,185.878555 314.346100,184.584259 314.147858,183.271378 
	C313.230499,177.195419 310.695740,175.611160 304.740692,177.434280 
	C299.303802,179.098785 298.292725,178.102249 296.886261,172.491653 
	C296.209045,169.790131 293.790192,167.525208 291.984894,164.718445 
	C287.202972,163.524139 282.596100,162.673981 277.988098,161.419083 
	C277.567169,156.480011 277.307861,151.920273 276.596893,147.432083 
	C276.448639,146.496078 274.738434,145.548096 273.559784,145.088989 
	C271.150574,144.150558 268.424957,143.888412 266.192108,142.678741 
	C264.575653,141.803024 263.542999,139.849701 262.250000,138.376923 
	C263.777344,137.102066 265.304688,135.827225 267.114380,134.578766 
	C267.963684,134.734375 268.530640,134.863586 269.097626,134.992798 
	C269.097626,134.992798 268.991577,135.012741 269.177185,135.239929 
	C270.605042,135.974884 271.847260,136.482651 273.089508,136.990433 
	C273.089508,136.990433 272.995300,137.011581 273.157654,137.241302 
	C274.257294,137.979263 275.194580,138.487473 276.131866,138.995682 
z"/>
<path fill="#E8853B" opacity="1.000000" stroke="none" 
	d="
M185.932449,162.930069 
	C185.967880,156.648453 186.036697,150.366791 186.029846,144.085220 
	C186.022232,137.102753 192.138336,132.797958 199.008453,135.019012 
	C199.769638,135.265076 200.461517,135.775467 201.232605,135.933243 
	C209.971283,137.721115 209.973740,137.709091 210.127335,146.585114 
	C210.264160,147.096237 210.643738,147.137527 210.643738,147.137527 
	C210.643738,147.137527 210.988754,146.939011 210.988754,146.939011 
	C210.988754,146.939011 210.942917,146.962265 211.330719,146.990417 
	C220.516037,150.231873 230.023132,152.496704 235.697159,160.793610 
	C239.502365,166.357788 244.696442,168.665588 250.889679,169.682236 
	C254.242020,170.232529 257.603027,170.730118 260.863342,171.472443 
	C260.531158,171.923431 260.265778,172.111008 259.785095,172.347504 
	C259.377594,172.611252 259.191528,172.816483 259.019409,173.030304 
	C258.997131,173.006042 259.050751,173.042496 258.860046,173.184509 
	C258.427582,173.535187 258.219818,173.773544 258.036133,174.048065 
	C258.026184,174.054535 258.038422,174.075378 257.707184,174.127304 
	C256.641846,175.137756 255.907761,176.096268 254.999954,177.357574 
	C253.422882,178.736420 251.902374,179.690781 250.636108,180.909332 
	C244.725128,186.597687 238.884308,192.358978 232.826294,197.868484 
	C232.422409,197.094940 232.210617,196.547089 232.234268,195.766876 
	C233.675903,194.160461 234.821686,192.726898 236.103058,191.426971 
	C237.839615,189.665253 239.680084,188.005936 241.475983,186.302704 
	C239.559753,184.868103 237.643341,183.433792 235.727371,181.998886 
	C228.741608,176.767166 221.627701,171.696411 214.802536,166.262939 
	C206.093796,159.329971 197.618362,152.103958 188.003937,144.144577 
	C188.003937,148.977707 188.204117,153.179306 187.915070,157.346970 
	C187.781067,159.279114 186.694611,161.145187 186.013031,163.013458 
	C185.986130,162.985703 185.932449,162.930069 185.932449,162.930069 
z"/>
<path fill="#E47832" opacity="1.000000" stroke="none" 
	d="
M330.837677,274.027924 
	C329.434723,279.295532 328.031769,284.563171 325.955383,290.063599 
	C323.554871,289.719055 321.426392,289.580505 320.198547,288.457367 
	C318.519531,286.921570 317.855743,284.272186 316.171173,282.746948 
	C312.262848,279.208282 307.553833,276.474548 304.000244,272.643768 
	C299.597931,267.898041 294.396606,265.401520 288.312042,263.878754 
	C284.787476,262.996643 281.469513,261.286530 280.951538,256.483521 
	C280.311646,250.368286 279.632294,244.716644 279.025848,238.824692 
	C278.462860,238.049866 277.826904,237.515350 277.132080,236.737091 
	C277.110291,236.330338 277.147400,236.167343 277.469788,235.876221 
	C278.171936,234.843948 278.588745,233.939774 279.255676,233.024017 
	C279.672607,233.007416 279.839417,233.002396 280.353455,233.031860 
	C282.367615,234.333374 284.034576,235.600433 286.004150,237.097488 
	C288.541565,233.845505 289.881866,235.877289 291.983276,238.475037 
	C296.236725,243.733093 300.795471,248.654770 307.853668,250.695358 
	C311.180389,251.657150 313.860870,254.683304 317.018219,256.444000 
	C321.239014,258.797699 325.638580,260.830750 329.969360,263.384491 
	C330.201721,265.462891 330.426117,267.158325 330.708008,269.190002 
	C330.813232,269.748566 330.860962,269.970917 330.908722,270.193268 
	C330.908722,270.193268 330.952911,270.612762 330.730652,271.044067 
	C330.618134,272.326233 330.727905,273.177094 330.837677,274.027924 
z"/>
<path fill="#DF6F2F" opacity="1.000000" stroke="none" 
	d="
M280.912079,256.947144 
	C281.469513,261.286530 284.787476,262.996643 288.312042,263.878754 
	C294.396606,265.401520 299.597931,267.898041 304.000244,272.643768 
	C307.553833,276.474548 312.262848,279.208282 316.171173,282.746948 
	C317.855743,284.272186 318.519531,286.921570 320.198547,288.457367 
	C321.426392,289.580505 323.554871,289.719055 325.650330,290.286438 
	C322.473175,297.249115 316.613953,301.669434 309.167419,304.879883 
	C307.353180,304.821320 306.142517,304.887451 304.819946,304.640228 
	C295.317902,300.166107 288.595154,292.663422 281.069366,286.057953 
	C277.285187,282.736511 273.059143,276.955627 266.304871,281.637360 
	C265.882324,281.930237 264.779297,281.241455 264.172546,280.724915 
	C265.281616,279.538818 266.349548,278.740814 267.115112,277.716736 
	C269.762390,274.175751 272.304321,270.556030 274.887177,266.934082 
	C274.888000,266.901917 274.952423,266.900848 275.241394,266.815582 
	C275.980377,266.124634 276.430420,265.518982 276.936646,264.549438 
	C278.299225,261.772766 279.605652,259.359955 280.912079,256.947144 
z"/>
<path fill="#E27431" opacity="1.000000" stroke="none" 
	d="
M231.998825,195.999237 
	C232.210617,196.547089 232.422409,197.094940 232.695038,198.167633 
	C231.450027,200.467102 230.144196,202.241745 228.838379,204.016388 
	C224.327209,206.550385 225.127335,211.355453 224.066895,215.338013 
	C223.629852,216.979401 223.616913,218.733688 223.411087,220.436630 
	C222.922974,220.547699 222.434860,220.658752 221.946762,220.769821 
	C221.310532,219.533676 220.199799,218.321594 220.135620,217.056427 
	C219.996689,214.317871 218.839645,213.170044 216.513718,211.463303 
	C209.705322,206.467392 203.742645,200.337036 197.179596,194.980774 
	C194.017242,192.399902 190.135132,190.721542 186.789703,188.338638 
	C183.328537,185.873337 179.887619,183.290649 176.853638,180.332825 
	C170.341904,173.984497 168.378616,174.109863 162.721512,178.090759 
	C162.174622,178.475616 161.198364,178.250336 160.164917,178.115509 
	C166.990784,173.736923 174.073166,169.551132 181.874176,165.216309 
	C183.400055,165.052811 184.207321,165.038345 185.254700,165.181580 
	C189.071182,167.487900 192.840591,169.375397 196.180069,171.844391 
	C201.610992,175.859695 206.504852,180.636490 212.096649,184.389801 
	C218.460876,188.661591 225.342239,192.162994 231.998825,195.999237 
z"/>
<path fill="#D3652E" opacity="1.000000" stroke="none" 
	d="
M216.108490,368.821838 
	C217.055267,368.489441 218.571991,368.417450 218.861115,367.784576 
	C221.900620,361.131409 224.764359,354.397278 227.633163,347.666931 
	C229.154236,344.098389 229.935028,339.952850 232.294128,337.094666 
	C233.870956,335.184326 237.596436,334.614258 240.441055,334.364929 
	C241.879242,334.238861 244.249634,335.799561 244.914124,337.204926 
	C250.455002,348.923340 255.683533,360.789154 261.036957,372.596588 
	C262.516510,375.859833 261.473083,377.115082 257.975861,377.014069 
	C249.200577,376.760529 251.584457,378.477844 246.185211,367.971497 
	C243.508987,367.971497 240.689056,367.991547 237.869553,367.966827 
	C233.588745,367.929321 229.583954,367.804657 228.576813,373.680786 
	C228.116974,376.363708 225.439453,377.529419 222.367477,377.058960 
	C220.430634,376.762299 218.411407,377.003601 215.896790,377.003601 
	C216.229233,374.877533 216.494568,373.180634 216.308548,371.109314 
	C215.940964,370.097229 216.024734,369.459534 216.108490,368.821838 
M235.039993,357.636383 
	C237.268753,357.896301 239.497513,358.156250 242.505890,358.507111 
	C240.912262,354.132599 239.893097,351.334961 238.744492,348.182007 
	C237.354675,351.458221 236.213562,354.148224 235.039993,357.636383 
z"/>
<path fill="#E8853B" opacity="1.000000" stroke="none" 
	d="
M386.850739,350.031647 
	C389.235504,348.147461 392.427582,346.736084 393.858337,344.293152 
	C398.764801,335.915588 406.905334,332.457367 414.984467,336.436218 
	C410.928925,340.872284 407.057739,345.316559 402.947296,349.527252 
	C400.313232,352.225525 399.404755,354.480560 402.179749,357.837708 
	C406.933228,363.588409 411.254974,369.695984 415.954712,375.914001 
	C411.689301,376.115082 407.872345,376.555878 404.094452,376.333496 
	C402.747314,376.254150 401.215698,374.787842 400.254761,373.570618 
	C397.948486,370.649353 395.989105,367.456696 393.758636,364.471527 
	C393.129303,363.629303 391.710602,362.393829 391.237885,362.610779 
	C390.048950,363.156555 388.800446,364.265747 388.309540,365.452545 
	C387.772858,366.750122 388.035919,368.387817 387.993378,369.878540 
	C387.892273,373.420929 388.830200,377.373077 382.857391,377.087006 
	C376.419250,376.778656 375.277283,375.944672 375.789093,368.862183 
	C376.581329,366.536011 376.952942,364.745026 376.974548,362.949829 
	C377.058624,355.969666 377.061981,348.988037 377.032257,342.007233 
	C377.018524,338.783508 377.170532,335.931549 381.608551,336.000031 
	C386.096680,336.069275 385.911865,339.091675 386.037567,342.205658 
	C386.143158,344.821014 386.567535,347.423462 386.850739,350.031647 
z"/>
<path fill="#EF9242" opacity="1.000000" stroke="none" 
	d="
M266.832062,134.552368 
	C265.304688,135.827225 263.777344,137.102066 262.250000,138.376923 
	C263.542999,139.849701 264.575653,141.803024 266.192108,142.678741 
	C268.424957,143.888412 271.150574,144.150558 273.559784,145.088989 
	C274.738434,145.548096 276.448639,146.496078 276.596893,147.432083 
	C277.307861,151.920273 277.567169,156.480011 277.598938,161.493210 
	C274.180511,163.014786 271.150085,164.057480 267.843750,164.901810 
	C265.699493,164.703430 263.831146,164.703430 262.017090,164.703430 
	C261.047516,162.140762 260.787506,158.055191 258.863861,156.998688 
	C252.804779,153.670898 247.418243,149.902451 243.491684,144.152054 
	C243.061005,143.521332 242.171082,143.150513 241.429092,142.794968 
	C237.277573,140.805695 233.106064,138.858139 228.941376,136.896347 
	C234.346848,132.024445 241.075455,129.405685 247.899353,128.316666 
	C252.126114,127.642120 256.839844,130.019135 261.883911,131.358429 
	C263.899231,132.644485 265.365662,133.598434 266.832062,134.552368 
z"/>
<path fill="#E87F35" opacity="1.000000" stroke="none" 
	d="
M349.638855,364.994690 
	C347.000763,362.096252 344.362701,359.197815 341.186462,356.041809 
	C339.073273,356.506287 337.498199,357.228363 334.725739,358.499420 
	C333.887421,356.099091 332.538971,353.457062 332.106720,350.672852 
	C331.631866,347.614044 331.962067,344.423615 332.010406,341.291626 
	C332.094269,335.858734 332.791565,335.418365 338.215088,337.058502 
	C338.757629,337.222565 339.434906,336.941223 340.049652,336.866608 
	C345.420410,343.417725 350.791168,349.968842 356.997162,357.538757 
	C356.997162,351.206360 356.799500,346.015564 357.100677,340.853851 
	C357.211243,338.958618 358.502106,337.132263 359.968079,335.397522 
	C366.322632,335.280243 367.425476,338.349213 367.022156,343.345093 
	C366.240326,353.030304 365.886414,362.751190 365.439941,372.461182 
	C365.373230,373.911652 365.766632,375.383270 365.947205,376.845154 
	C364.907532,376.892944 363.867828,376.940735 362.305908,376.600800 
	C360.117188,375.471436 358.450714,374.729767 356.784241,373.988129 
	C356.484009,373.965607 356.257843,373.824463 356.044617,372.993958 
	C354.961182,371.290161 353.938843,370.157166 352.916473,369.024170 
	C352.916473,369.024170 352.981171,369.015503 352.966553,368.694580 
	C351.847565,367.247345 350.743195,366.121033 349.638855,364.994690 
z"/>
<path fill="#EC8D3F" opacity="1.000000" stroke="none" 
	d="
M228.575302,136.944855 
	C233.106064,138.858139 237.277573,140.805695 241.429092,142.794968 
	C242.171082,143.150513 243.061005,143.521332 243.491684,144.152054 
	C247.418243,149.902451 252.804779,153.670898 258.863861,156.998688 
	C260.787506,158.055191 261.047516,162.140762 262.017090,164.703430 
	C263.831146,164.703430 265.699493,164.703430 267.688660,165.222778 
	C265.526367,167.578583 263.243256,169.415024 260.960114,171.251495 
	C257.603027,170.730118 254.242020,170.232529 250.889679,169.682236 
	C244.696442,168.665588 239.502365,166.357788 235.697159,160.793610 
	C230.023132,152.496704 220.516037,150.231873 211.335663,146.965179 
	C216.704941,143.605652 222.457092,140.299500 228.575302,136.944855 
M261.500397,167.472198 
	C261.500397,167.472198 261.515228,167.512558 261.500397,167.472198 
z"/>
<path fill="#CE5F2B" opacity="1.000000" stroke="none" 
	d="
M215.941406,368.523193 
	C216.024734,369.459534 215.940964,370.097229 215.983414,370.947998 
	C203.406296,383.303833 183.794312,377.030548 178.830154,364.585632 
	C175.161728,355.389038 176.955765,346.501587 184.885529,338.835663 
	C185.595718,338.512054 185.778290,338.352478 185.915833,338.141296 
	C186.078415,338.097321 186.241013,338.053375 187.004852,338.064331 
	C191.195969,339.591675 194.841354,341.018646 194.088440,346.043549 
	C194.088440,346.043549 194.065201,346.053650 193.776428,346.109619 
	C193.026108,346.470306 192.564529,346.774994 192.102951,347.079651 
	C189.414185,352.078644 187.053329,357.024231 191.018829,362.575287 
	C194.602997,367.592529 198.966614,369.442535 204.122986,366.131805 
	C209.263184,362.831421 212.524521,363.996094 215.941406,368.523193 
z"/>
<path fill="#BD411E" opacity="1.000000" stroke="none" 
	d="
M98.778809,375.899231 
	C98.524597,372.174286 98.090927,368.451294 98.051109,364.724060 
	C97.947334,355.009308 98.016190,345.292694 98.016190,335.277954 
	C101.823326,335.277954 105.080589,335.277954 108.620636,336.060455 
	C108.929596,345.168854 108.895279,353.495758 109.031616,361.819855 
	C109.059807,363.541412 109.722702,365.252563 110.093063,366.968506 
	C114.039787,366.990265 117.986488,367.018555 121.933243,367.032471 
	C130.262085,367.061829 130.262100,367.058746 129.048401,375.610046 
	C118.440582,375.870178 108.609695,375.884705 98.778809,375.899231 
z"/>
<path fill="#C44A20" opacity="1.000000" stroke="none" 
	d="
M149.994019,376.829834 
	C140.371262,377.712799 128.954147,366.879822 129.803619,357.136200 
	C130.334549,351.046265 130.584351,345.303467 135.095367,340.805542 
	C136.879089,339.026978 139.198059,337.785187 141.743149,336.307861 
	C142.539795,336.406616 142.789413,336.289856 142.961838,335.966400 
	C142.961838,335.966400 142.984375,335.969666 143.452850,335.983704 
	C148.420563,335.997742 152.919800,335.997742 157.887863,335.997742 
	C156.890335,340.535522 155.804016,343.159912 151.679749,343.124176 
	C150.764008,343.116241 149.838760,344.208038 148.577118,344.887756 
	C147.195618,345.758759 146.227798,346.667450 145.101700,347.289642 
	C139.775604,350.232483 140.807541,355.632935 141.683029,359.645721 
	C142.530014,363.527802 145.858276,367.091278 151.119415,367.479004 
	C154.553970,369.470093 157.767929,371.222229 160.991638,372.986755 
	C161.001389,372.999115 161.026367,373.018524 160.859955,373.350952 
	C157.127029,374.732178 153.560516,375.781006 149.994019,376.829834 
M149.498535,341.525909 
	C149.498535,341.525909 149.484894,341.488281 149.498535,341.525909 
z"/>
<path fill="#CD4D1E" opacity="1.000000" stroke="none" 
	d="
M200.875198,307.815308 
	C197.472824,306.596405 194.070450,305.377441 190.211517,303.693298 
	C188.827545,302.842072 187.900146,302.456055 186.972748,302.070038 
	C186.972748,302.070038 186.972626,302.040344 186.833405,301.725037 
	C185.447342,300.652039 184.200516,299.894287 182.953690,299.136566 
	C182.353241,298.623016 181.752777,298.109467 181.054596,296.958435 
	C180.630478,294.882263 180.304077,293.443573 180.178436,291.750336 
	C180.581573,290.667664 180.783951,289.839508 180.993835,289.004791 
	C181.001343,288.998230 181.015182,288.983795 181.344421,288.873230 
	C184.989960,285.099304 191.015915,286.412445 193.978958,280.620667 
	C195.652206,277.350037 202.507462,276.730469 207.060181,274.924133 
	C207.091827,274.931488 207.077896,274.994965 207.018204,275.358826 
	C204.734009,279.633118 204.051620,282.973389 212.001724,283.748657 
	C208.782028,286.613983 206.908295,288.654541 204.683090,290.183655 
	C200.130081,293.312378 198.978012,296.216400 202.163193,298.064087 
	C205.589081,300.051483 209.419174,301.342041 213.063156,302.964050 
	C213.053406,302.991455 213.024841,302.940765 213.176727,303.128357 
	C213.545044,303.555359 213.790863,303.759369 214.380707,303.946930 
	C215.449570,304.168182 216.203735,304.370514 216.863708,304.959045 
	C214.193542,306.166840 211.617584,306.988434 208.661316,307.828613 
	C207.519485,307.850922 206.757996,307.854645 205.700867,307.694946 
	C203.895203,307.626160 202.385208,307.720734 200.875198,307.815308 
z"/>
<path fill="#CE5F2B" opacity="1.000000" stroke="none" 
	d="
M160.981888,372.974365 
	C157.767929,371.222229 154.553970,369.470093 151.531830,367.400391 
	C157.271713,367.674377 160.352615,364.083557 162.320984,359.891693 
	C164.009018,356.296814 163.461884,352.407562 161.022659,348.815399 
	C157.914429,344.237976 153.429871,344.675598 148.917892,344.793457 
	C149.838760,344.208038 150.764008,343.116241 151.679749,343.124176 
	C155.804016,343.159912 156.890335,340.535522 157.887863,335.997742 
	C152.919800,335.997742 148.420563,335.997742 143.455322,335.972565 
	C156.202454,333.312256 168.682587,334.212036 173.861816,348.913910 
	C177.957672,360.540497 173.176712,372.346619 160.470367,375.982941 
	C157.354248,376.874695 153.963165,376.805695 150.346252,377.004150 
	C153.560516,375.781006 157.127029,374.732178 160.919113,373.314240 
	C161.144684,372.945129 161.144043,372.770752 161.144043,372.770752 
	C161.144043,372.770752 160.981888,372.974365 160.981888,372.974365 
z"/>
<path fill="#DE6C2E" opacity="1.000000" stroke="none" 
	d="
M276.174744,373.780518 
	C276.139221,373.419403 276.103668,373.058258 276.280823,372.159302 
	C276.392456,369.758240 276.291382,367.894989 276.190308,366.031769 
	C276.131073,357.392792 276.062683,348.753845 276.016998,340.114777 
	C275.998383,336.591400 277.012604,334.168884 281.314423,334.964630 
	C282.755676,335.231232 284.280212,335.047394 286.298157,335.602905 
	C286.895721,340.943115 286.873932,345.753113 287.051239,350.555817 
	C287.251007,355.967255 287.630066,361.372131 287.931152,366.779846 
	C288.100830,366.842438 288.270569,366.905060 288.925385,367.233765 
	C289.943909,367.673187 290.477386,367.846497 290.999939,368.397247 
	C290.319214,371.057007 289.649353,373.339355 288.531494,375.666595 
	C284.823486,375.772705 281.563507,375.833923 278.134705,375.638062 
	C277.368866,374.847473 276.771790,374.313995 276.174744,373.780518 
z"/>
<path fill="#D05926" opacity="1.000000" stroke="none" 
	d="
M170.178452,263.774261 
	C170.178452,263.774261 170.070496,263.503235 170.351974,262.994537 
	C170.879837,252.670273 171.126221,242.854706 171.673523,233.129486 
	C172.894547,233.884338 173.722916,234.849884 174.750137,235.162964 
	C180.161560,236.812286 183.057968,243.959351 190.001648,242.483932 
	C187.991913,245.769272 185.033295,248.469330 184.229858,251.704590 
	C182.752930,257.651917 182.544632,263.914276 181.445068,270.049133 
	C177.865295,271.376678 174.647980,272.700439 171.344177,273.585602 
	C170.897949,270.022766 170.538208,266.898529 170.178452,263.774261 
z"/>
<path fill="#E07535" opacity="1.000000" stroke="none" 
	d="
M319.981201,376.803436 
	C319.331604,376.860748 318.682739,376.957977 318.032349,376.969208 
	C310.285400,377.102753 309.985260,376.804199 310.428467,368.376038 
	C310.944122,359.543182 311.135956,351.435455 311.127716,343.327942 
	C311.125458,341.106018 310.523682,338.884674 310.197021,336.663086 
	C312.504242,336.114716 314.811493,335.566345 317.844299,335.294220 
	C319.352509,337.399261 320.774811,339.214600 320.813568,341.059021 
	C321.058594,352.720062 320.997070,364.387573 321.036743,376.052948 
	C321.036743,376.052948 321.002411,376.005157 320.837708,376.118530 
	C320.418976,376.394104 320.188385,376.584595 319.981201,376.803436 
z"/>
<path fill="#E07535" opacity="1.000000" stroke="none" 
	d="
M339.861450,336.512177 
	C339.434906,336.941223 338.757629,337.222565 338.215088,337.058502 
	C332.791565,335.418365 332.094269,335.858734 332.010406,341.291626 
	C331.962067,344.423615 331.631866,347.614044 332.106720,350.672852 
	C332.538971,353.457062 333.887421,356.099091 334.725739,358.499420 
	C337.498199,357.228363 339.073273,356.506287 340.861542,355.955902 
	C341.047791,361.429230 340.955414,366.731537 341.012360,372.032288 
	C341.068970,377.297668 337.487244,376.920258 333.863617,377.088501 
	C330.230560,377.257141 328.879242,376.052246 328.936707,372.288177 
	C329.123444,360.059418 329.006561,347.826050 329.006561,334.530701 
	C332.878326,335.121277 336.275787,335.639496 339.861450,336.512177 
z"/>
<path fill="#D3652E" opacity="1.000000" stroke="none" 
	d="
M194.465485,345.875549 
	C194.841354,341.018646 191.195969,339.591675 187.253845,338.021454 
	C194.373932,333.044220 206.907898,333.391815 213.307159,339.004211 
	C214.531204,340.077759 215.672928,343.190033 215.047913,344.049744 
	C213.399979,346.316559 211.527374,349.924347 207.533936,347.029480 
	C203.564148,344.151733 199.248154,344.468353 194.465485,345.875549 
z"/>
<path fill="#CD4D1E" opacity="1.000000" stroke="none" 
	d="
M171.430664,274.024170 
	C174.647980,272.700439 177.865295,271.376678 181.623428,270.343445 
	C182.786011,272.067657 183.407791,273.501312 183.883057,275.265076 
	C182.829422,280.058014 181.922302,284.520905 181.015198,288.983795 
	C181.015182,288.983795 181.001343,288.998230 180.675995,288.891083 
	C178.567886,287.869476 176.785141,286.954987 174.707397,286.021088 
	C174.019394,285.970001 173.626373,285.938293 173.233368,285.906616 
	C173.233368,285.906616 173.058212,285.487915 173.021454,284.864929 
	C172.377579,281.497498 171.770447,278.753113 171.163330,276.008698 
	C171.163330,276.008698 171.036331,275.647064 171.143463,275.145508 
	C171.310623,274.437347 171.370651,274.230743 171.430664,274.024170 
z"/>
<path fill="#D98850" opacity="1.000000" stroke="none" 
	d="
M366.315613,376.907898 
	C365.766632,375.383270 365.373230,373.911652 365.439941,372.461182 
	C365.886414,362.751190 366.240326,353.030304 367.022156,343.345093 
	C367.425476,338.349213 366.322632,335.280243 360.344238,335.332336 
	C362.802887,335.144104 365.598846,335.144104 368.076782,335.144104 
	C368.076782,346.155151 368.066010,356.986694 368.085388,367.818146 
	C368.089478,370.121613 368.339722,372.433746 368.190948,374.723297 
	C368.140320,375.501770 367.211517,376.223175 366.315613,376.907898 
z"/>
<path fill="#FFCBB6" opacity="1.000000" stroke="none" 
	d="
M205.996506,307.858368 
	C206.757996,307.854645 207.519485,307.850922 209.114075,307.923096 
	C216.654160,307.910736 223.361145,307.822449 230.531067,307.778198 
	C252.959930,307.743988 274.925842,307.665710 297.123474,307.670776 
	C297.355164,307.754120 297.830078,307.884583 297.869751,307.979675 
	C297.909454,308.074768 298.100159,307.996643 298.100159,307.996643 
	C296.775482,308.335510 295.451202,308.968414 294.126129,308.970093 
	C264.395660,309.007538 234.665085,308.975525 204.685760,308.698303 
	C204.956833,308.246124 205.476669,308.052246 205.996506,307.858368 
z"/>
<path fill="#FFCBB6" opacity="1.000000" stroke="none" 
	d="
M331.330444,270.011475 
	C330.860962,269.970917 330.813232,269.748566 330.758545,268.739929 
	C330.686829,247.643555 330.622070,227.333511 330.557312,207.023453 
	C330.954376,204.246826 331.351410,201.470200 332.088074,198.792786 
	C332.309448,209.802658 332.179260,220.713242 332.076172,231.624054 
	C331.955841,244.359161 331.859131,257.094482 331.330444,270.011475 
z"/>
<path fill="#D98850" opacity="1.000000" stroke="none" 
	d="
M386.932281,349.633972 
	C386.567535,347.423462 386.143158,344.821014 386.037567,342.205658 
	C385.911865,339.091675 386.096680,336.069275 381.608551,336.000031 
	C377.170532,335.931549 377.018524,338.783508 377.032257,342.007233 
	C377.061981,348.988037 377.058624,355.969666 376.974548,362.949829 
	C376.952942,364.745026 376.581329,366.536011 376.111938,368.656555 
	C375.853394,357.844238 375.853394,346.704254 375.853394,335.277191 
	C379.783661,335.277191 383.175537,335.277191 387.013824,335.277191 
	C387.013824,340.004272 387.013824,344.620300 386.932281,349.633972 
z"/>
<path fill="#D98850" opacity="1.000000" stroke="none" 
	d="
M171.372604,233.039139 
	C171.126221,242.854706 170.879837,252.670273 170.403931,262.858215 
	C170.092606,242.136932 170.010803,221.043228 169.876190,199.483414 
	C170.425613,202.414032 171.027832,205.810776 171.701355,209.983826 
	C171.620483,213.551498 171.468307,216.342865 171.300781,219.316162 
	C171.285431,219.498077 171.311279,219.862259 171.283020,220.318665 
	C171.283997,222.602997 171.313248,224.430908 171.297943,226.629822 
	C171.277725,228.247772 171.302063,229.494736 171.308395,231.124786 
	C171.317795,232.018295 171.345200,232.528717 171.372604,233.039139 
z"/>
<path fill="#D98850" opacity="1.000000" stroke="none" 
	d="
M321.409882,375.825928 
	C320.997070,364.387573 321.058594,352.720062 320.813568,341.059021 
	C320.774811,339.214600 319.352509,337.399261 318.262878,335.363403 
	C321.934509,334.048462 323.078644,334.050537 322.392456,339.445404 
	C321.191650,348.885895 322.037689,358.585114 321.994965,368.175781 
	C321.983948,370.650421 321.856842,373.124512 321.409882,375.825928 
z"/>
<path fill="#FFCBB6" opacity="1.000000" stroke="none" 
	d="
M287.933624,366.332123 
	C287.630066,361.372131 287.251007,355.967255 287.051239,350.555817 
	C286.873932,345.753113 286.895721,340.943115 286.710114,335.698669 
	C287.047028,336.550293 287.883026,337.834991 287.898743,339.129608 
	C288.007050,348.046722 287.944031,356.965881 287.933624,366.332123 
z"/>
<path fill="#F29A4A" opacity="1.000000" stroke="none" 
	d="
M278.303528,375.895142 
	C281.563507,375.833923 284.823486,375.772705 288.995422,375.740112 
	C295.151581,375.745026 300.395721,375.721252 305.953857,375.801758 
	C306.476318,375.977997 306.684814,376.049957 306.893280,376.121918 
	C305.235535,376.429016 303.578918,376.992798 301.919861,377.000092 
	C293.441376,377.037415 284.962280,376.931091 276.636963,376.471802 
	C277.294891,376.010773 277.799194,375.952972 278.303528,375.895142 
z"/>
<path fill="#D98850" opacity="1.000000" stroke="none" 
	d="
M110.052155,366.504272 
	C109.722702,365.252563 109.059807,363.541412 109.031616,361.819855 
	C108.895279,353.495758 108.929596,345.168854 108.893051,336.363007 
	C109.252556,337.360016 109.923904,338.833130 109.942589,340.314545 
	C110.050705,348.888611 110.004936,357.464661 110.052155,366.504272 
z"/>
<path fill="#FFCBB6" opacity="1.000000" stroke="none" 
	d="
M310.089417,337.152527 
	C310.523682,338.884674 311.125458,341.106018 311.127716,343.327942 
	C311.135956,351.435455 310.944122,359.543182 310.511871,367.968903 
	C310.124634,358.071960 310.053223,347.856964 310.089417,337.152527 
z"/>
<path fill="#D98850" opacity="1.000000" stroke="none" 
	d="
M99.008362,376.294525 
	C108.609695,375.884705 118.440582,375.870178 128.760880,375.883331 
	C128.581390,376.266724 127.911606,376.933350 127.243759,376.931396 
	C117.908318,376.904327 108.573143,376.785950 99.008362,376.294525 
z"/>
<path fill="#D98850" opacity="1.000000" stroke="none" 
	d="
M306.936066,375.653625 
	C306.684814,376.049957 306.476318,375.977997 306.046265,375.411926 
	C305.866791,368.656647 305.277466,368.015503 299.345001,367.986328 
	C296.567078,367.972656 293.788910,368.007172 291.010834,368.019836 
	C290.477386,367.846497 289.943909,367.673187 289.174744,367.340820 
	C294.819794,367.181763 300.700592,367.181763 306.978851,367.181763 
	C306.978851,370.014862 306.978851,372.600128 306.936066,375.653625 
z"/>
<path fill="#D05926" opacity="1.000000" stroke="none" 
	d="
M179.977692,292.004852 
	C180.304077,293.443573 180.630478,294.882263 180.919250,296.691895 
	C178.926575,294.629028 176.971512,292.195251 175.022720,289.368469 
	C175.028992,288.975494 175.131470,288.890167 175.438995,288.996704 
	C177.156906,290.070465 178.567291,291.037659 179.977692,292.004852 
z"/>
<path fill="#D3652E" opacity="1.000000" stroke="none" 
	d="
M304.931824,304.953552 
	C306.142517,304.887451 307.353180,304.821320 308.806458,304.933685 
	C305.668121,306.082733 302.287231,307.053284 298.503235,308.010223 
	C298.100159,307.996643 297.909454,308.074768 298.057800,307.682373 
	C300.448029,306.511200 302.689911,305.732361 304.931824,304.953552 
z"/>
<path fill="#FFCBB6" opacity="1.000000" stroke="none" 
	d="
M267.114380,134.578766 
	C265.365662,133.598434 263.899231,132.644485 262.242432,131.452606 
	C264.306091,132.254822 266.560120,133.294968 268.955902,134.663940 
	C268.530640,134.863586 267.963684,134.734375 267.114380,134.578766 
z"/>
<path fill="#D98850" opacity="1.000000" stroke="none" 
	d="
M276.129700,366.401367 
	C276.291382,367.894989 276.392456,369.758240 276.273590,371.886719 
	C276.058807,370.358307 276.063965,368.564667 276.129700,366.401367 
z"/>
<path fill="#D98850" opacity="1.000000" stroke="none" 
	d="
M171.344177,273.585602 
	C171.370651,274.230743 171.310623,274.437347 171.160385,274.954590 
	C170.723251,271.750946 170.376358,268.236572 170.103943,264.248230 
	C170.538208,266.898529 170.897949,270.022766 171.344177,273.585602 
z"/>
<path fill="#D05926" opacity="1.000000" stroke="none" 
	d="
M171.104233,276.422913 
	C171.770447,278.753113 172.377579,281.497498 172.953247,284.648499 
	C172.296234,282.315765 171.670685,279.576416 171.104233,276.422913 
z"/>
<path fill="#D98850" opacity="1.000000" stroke="none" 
	d="
M356.930847,374.321533 
	C358.450714,374.729767 360.117188,375.471436 361.920471,376.531982 
	C360.397339,376.118958 358.737396,375.386963 356.930847,374.321533 
z"/>
<path fill="#D98850" opacity="1.000000" stroke="none" 
	d="
M349.825897,365.289734 
	C350.743195,366.121033 351.847565,367.247345 352.960327,368.726624 
	C351.983490,367.914612 350.998199,366.749695 349.825897,365.289734 
z"/>
<path fill="#D98850" opacity="1.000000" stroke="none" 
	d="
M352.960754,369.362427 
	C353.938843,370.157166 354.961182,371.290161 355.999237,372.792297 
	C355.011658,372.007812 354.008362,370.854218 352.960754,369.362427 
z"/>
<path fill="#D05926" opacity="1.000000" stroke="none" 
	d="
M183.073822,299.436951 
	C184.200516,299.894287 185.447342,300.652039 186.818970,301.728455 
	C185.693832,301.277222 184.443893,300.507263 183.073822,299.436951 
z"/>
<path fill="#FFCBB6" opacity="1.000000" stroke="none" 
	d="
M272.955383,136.661819 
	C271.847260,136.482651 270.605042,135.974884 269.167023,135.186951 
	C270.254578,135.382248 271.537933,135.857727 272.955383,136.661819 
z"/>
<path fill="#D98850" opacity="1.000000" stroke="none" 
	d="
M278.134705,375.638062 
	C277.799194,375.952972 277.294891,376.010773 276.414307,376.103821 
	C275.895691,375.461426 275.753326,374.783752 275.892853,373.943298 
	C276.771790,374.313995 277.368866,374.847473 278.134705,375.638062 
z"/>
<path fill="#D98850" opacity="1.000000" stroke="none" 
	d="
M205.700867,307.694946 
	C205.476669,308.052246 204.956833,308.246124 204.223297,308.621216 
	C203.186295,308.531403 202.362946,308.260345 201.207397,307.902283 
	C202.385208,307.720734 203.895203,307.626160 205.700867,307.694946 
z"/>
<path fill="#FFCBB6" opacity="1.000000" stroke="none" 
	d="
M276.000427,138.681396 
	C275.194580,138.487473 274.257294,137.979263 273.146912,137.194244 
	C273.938873,137.400681 274.903931,137.883896 276.000427,138.681396 
z"/>
<path fill="#E8853B" opacity="1.000000" stroke="none" 
	d="
M185.014572,165.023880 
	C184.207321,165.038345 183.400055,165.052811 182.185638,165.090027 
	C182.930511,164.408081 184.082550,163.703384 185.583511,162.964386 
	C185.932449,162.930069 185.986130,162.985703 185.889404,163.264282 
	C185.533310,164.036545 185.273941,164.530212 185.014572,165.023880 
z"/>
<path fill="#D05926" opacity="1.000000" stroke="none" 
	d="
M173.224472,286.227661 
	C173.626373,285.938293 174.019394,285.970001 174.713867,286.377106 
	C175.054047,287.465088 175.092758,288.177612 175.131470,288.890167 
	C175.131470,288.890167 175.028992,288.975494 174.977402,289.017731 
	C174.355743,288.222900 173.785660,287.385834 173.224472,286.227661 
z"/>
<path fill="#D05926" opacity="1.000000" stroke="none" 
	d="
M187.099762,302.354614 
	C187.900146,302.456055 188.827545,302.842072 189.890732,303.515747 
	C189.093292,303.415283 188.160049,303.027252 187.099762,302.354614 
z"/>
<path fill="#EC8D3F" opacity="1.000000" stroke="none" 
	d="
M330.901001,273.653015 
	C330.727905,273.177094 330.618134,272.326233 330.658203,271.242188 
	C330.860138,271.765320 330.912231,272.521698 330.901001,273.653015 
z"/>
<path fill="#D3652E" opacity="1.000000" stroke="none" 
	d="
M192.407837,347.062561 
	C192.564529,346.774994 193.026108,346.470306 193.768829,346.119751 
	C193.604233,346.397766 193.158478,346.721649 192.407837,347.062561 
z"/>
<path fill="#D98850" opacity="1.000000" stroke="none" 
	d="
M320.243805,376.832428 
	C320.188385,376.584595 320.418976,376.394104 320.867126,376.118774 
	C320.876282,376.290863 320.691345,376.576141 320.243805,376.832428 
z"/>
<path fill="#D3652E" opacity="1.000000" stroke="none" 
	d="
M185.706345,338.096680 
	C185.778290,338.352478 185.595718,338.512054 185.193176,338.660522 
	C185.039322,338.382660 185.198868,338.166351 185.706345,338.096680 
z"/>
<path fill="#FFCBB6" opacity="1.000000" stroke="none" 
	d="
M277.887177,139.805359 
	C277.534241,140.008881 277.275940,139.824615 276.941162,139.365585 
	C277.187744,139.268890 277.560150,139.377808 277.887177,139.805359 
z"/>
<path fill="#EC8D3F" opacity="1.000000" stroke="none" 
	d="
M210.757935,146.949326 
	C210.988754,146.939011 210.643738,147.137527 210.643738,147.137527 
	C210.643738,147.137527 210.264160,147.096237 210.165298,147.010162 
	C210.066437,146.924088 210.527130,146.959641 210.757935,146.949326 
z"/>
<path fill="#CE5F2B" opacity="1.000000" stroke="none" 
	d="
M142.704529,335.978149 
	C142.789413,336.289856 142.539795,336.406616 142.083984,336.229248 
	C142.119064,336.091095 142.283157,336.040497 142.704529,335.978149 
z"/>
<path fill="#000000" opacity="1.000000" stroke="none" 
	d="
M216.957916,304.572876 
	C216.203735,304.370514 215.449570,304.168182 214.291351,303.708038 
	C213.599808,303.280426 213.312317,303.110596 213.024841,302.940765 
	C213.024841,302.940765 213.053406,302.991455 213.230759,302.624268 
	C214.327881,302.389954 215.253220,302.492493 216.166519,302.660492 
	C222.788269,303.878815 229.359070,304.767548 235.456329,299.972168 
	C236.531311,299.682953 237.275955,299.392242 238.047729,299.103394 
	C238.074860,299.105194 238.081894,299.051300 238.329987,299.043335 
	C238.912094,298.880737 239.084198,298.619568 239.302185,298.131561 
	C239.509949,298.011261 239.947601,297.813721 240.245087,297.826050 
	C241.038315,297.244476 241.534042,296.650604 242.031616,296.045227 
	C242.033463,296.033722 242.056137,296.028351 242.359879,295.908783 
	C242.864227,295.237091 243.064835,294.684967 243.199997,294.132874 
	C243.134537,294.132874 243.140152,294.263672 243.455734,294.384460 
	C244.182785,294.023407 244.594269,293.541534 245.032639,293.060852 
	C245.059540,293.062042 245.060318,293.008179 245.335403,292.919159 
	C246.082809,292.239136 246.555130,291.648102 247.040131,291.052551 
	C247.052795,291.047974 247.067963,291.025665 247.370682,290.913940 
	C248.882309,289.430756 250.091217,288.059235 251.319672,286.708923 
	C251.339203,286.730072 251.391953,286.707764 251.708298,286.546448 
	C253.741882,284.712433 255.536514,283.111267 257.161682,281.353455 
	C261.812592,276.322968 266.394714,271.228912 271.058533,266.145477 
	C271.113190,266.131134 271.089203,266.020721 271.314270,265.976501 
	C271.864746,265.765411 271.971649,265.508057 272.002716,264.810364 
	C276.705597,256.952972 277.939117,249.208023 273.885498,240.748108 
	C273.632599,239.889359 273.307892,239.363205 272.980652,238.672302 
	C272.978180,238.507523 272.883423,238.191864 272.947876,237.881470 
	C272.685303,237.353790 272.358276,237.136490 272.020996,236.950165 
	C272.010712,236.981110 272.075867,236.984039 272.006592,236.705811 
	C271.622681,236.225296 271.308075,236.023041 270.979675,235.669373 
	C270.965912,235.517960 270.847382,235.237946 270.911102,234.930023 
	C270.660767,234.393188 270.346741,234.164276 270.017365,233.961487 
	C270.002014,233.987610 270.062317,233.981598 269.993347,233.717712 
	C269.618591,233.281998 269.312836,233.110184 269.003784,232.969604 
	C269.000488,233.000854 269.062592,232.991394 268.996368,232.725510 
	C268.623169,232.288361 268.316193,232.117096 268.003235,231.974335 
	C267.997314,232.002838 268.054230,231.990585 267.991760,231.725006 
	C267.624969,231.285126 267.320679,231.110840 267.025085,230.965851 
	C267.033813,230.995178 267.063751,230.941833 266.964233,230.607407 
	C264.923615,228.263641 263.289856,228.521378 261.959869,230.969879 
	C261.970795,231.000397 261.971283,230.937027 261.682190,230.982513 
	C261.185120,231.347961 260.977173,231.667892 260.491028,232.169922 
	C257.627472,234.979004 254.898956,237.485306 252.530304,240.294998 
	C251.637863,241.353622 251.024689,243.206360 251.244736,244.538406 
	C251.880630,248.387863 253.004913,252.156631 253.621368,256.097961 
	C248.177399,262.134125 243.049515,268.029388 237.619598,274.066895 
	C233.867249,277.097626 230.416916,279.986176 226.528717,282.924622 
	C223.741638,282.947662 221.392426,282.920807 218.883072,282.590576 
	C217.827972,282.234344 216.932999,282.181458 215.710632,281.979218 
	C212.614792,279.551575 209.846344,277.273285 207.077896,274.994965 
	C207.077896,274.994965 207.091827,274.931488 207.059662,274.592133 
	C206.617081,273.506348 206.206680,272.759918 205.818756,271.757507 
	C205.568771,271.310852 205.296295,271.120117 205.016479,270.960632 
	C205.009109,270.991882 205.073212,270.988220 205.046951,270.656097 
	C204.962921,269.885071 204.905151,269.446198 204.894653,268.759491 
	C204.905457,268.347504 204.868988,268.183319 204.896194,267.597443 
	C206.718979,262.460602 208.478104,257.745422 210.563477,253.023041 
	C211.277725,252.362213 211.665710,251.708633 212.027161,251.027527 
	C212.000610,251.000000 212.055923,251.053268 212.401337,251.032364 
	C213.184784,250.358643 213.622818,249.705826 214.095825,249.086029 
	C214.130783,249.119049 214.206573,249.059875 214.206573,249.059875 
	C219.145264,244.395493 224.236893,239.875351 228.889969,234.941620 
	C229.790222,233.987061 229.632156,231.044662 228.843369,229.653748 
	C224.881256,222.667038 225.047668,215.479309 227.105179,208.109650 
	C227.437912,206.917847 228.339691,205.884903 228.908417,204.397461 
	C230.144196,202.241745 231.450027,200.467102 232.887115,198.393311 
	C238.884308,192.358978 244.725128,186.597687 250.636108,180.909332 
	C251.902374,179.690781 253.422882,178.736420 255.279694,177.253021 
	C256.501587,175.922272 257.269989,174.998825 258.038422,174.075378 
	C258.038422,174.075378 258.026184,174.054535 258.294098,173.992523 
	C258.724945,173.634506 258.887848,173.338501 259.050751,173.042496 
	C259.050751,173.042496 258.997131,173.006042 259.249817,172.998260 
	C259.821075,172.849091 259.977020,172.604309 259.970337,172.256134 
	C260.265778,172.111008 260.531158,171.923431 260.863342,171.472443 
	C263.243256,169.415024 265.526367,167.578583 267.964600,165.421158 
	C271.150085,164.057480 274.180511,163.014786 277.600098,161.897964 
	C282.596100,162.673981 287.202972,163.524139 291.916412,164.925003 
	C292.023010,165.475708 291.962463,165.908463 291.643677,165.951462 
	C290.898010,165.965851 290.471130,165.937241 289.833496,165.566315 
	C288.150757,165.135391 286.665070,165.145096 285.209015,164.941986 
	C276.537109,163.732452 269.408447,166.915039 263.128357,172.606689 
	C263.121552,172.619965 263.113220,172.647736 263.022858,172.683685 
	C262.932495,172.719650 262.939301,172.914017 262.631165,173.054993 
	C258.337616,177.506226 254.461807,181.925003 250.334274,186.094589 
	C246.596664,189.870270 242.584503,193.374161 238.421173,197.114853 
	C237.757538,198.123352 237.366150,199.014877 236.940430,199.906525 
	C236.906097,199.906631 236.902588,199.975189 236.566162,200.105865 
	C235.496506,200.817978 234.405289,201.247147 234.083603,202.003586 
	C229.019760,213.911407 229.648819,225.767975 238.586899,235.772888 
	C239.744156,237.068298 243.841446,237.721420 244.893143,236.783691 
	C249.468231,232.704330 253.420258,227.926178 256.658936,224.419403 
	C255.317825,220.083160 254.071442,216.053192 252.974182,211.701645 
	C253.976944,210.195969 254.697235,208.881729 255.705566,207.848618 
	C262.786102,200.593979 269.926056,193.397308 277.438171,186.100220 
	C282.137970,184.724823 286.092712,183.728821 290.853363,185.783829 
	C296.572021,188.252396 301.844238,193.570633 301.953461,199.897186 
	C302.000641,202.630249 301.422394,205.374084 301.035370,208.317627 
	C300.942474,208.522202 300.746643,208.930298 300.514771,209.001373 
	C299.989105,209.290024 299.871582,209.579437 299.939209,209.967987 
	C299.948151,209.995270 299.912079,209.944244 299.616913,210.028625 
	C299.188873,210.685654 299.056030,211.258316 298.624329,211.997559 
	C293.843170,216.747681 289.360809,221.331238 284.615784,226.033157 
	C283.878906,226.739929 283.404694,227.328354 282.654358,228.023987 
	C281.887146,228.736099 281.396027,229.341003 280.672913,230.021591 
	C280.143188,230.288010 279.983185,230.559814 279.684509,231.021332 
	C279.000702,231.755661 278.593262,232.381363 278.039490,233.309692 
	C277.656921,234.409653 277.420715,235.207001 277.184509,236.004333 
	C277.147400,236.167343 277.110291,236.330338 277.120575,237.034546 
	C277.762939,238.072159 278.357910,238.568588 278.952911,239.065002 
	C279.632294,244.716644 280.311646,250.368286 280.951538,256.483521 
	C279.605652,259.359955 278.299225,261.772766 276.670410,264.652771 
	C275.882812,265.713593 275.417633,266.307220 274.952454,266.900848 
	C274.952423,266.900848 274.888000,266.901917 274.582153,267.059814 
	C267.105438,274.366638 259.897125,281.478699 252.793915,288.694183 
	C251.291229,290.220642 250.172821,292.125366 248.530777,293.896515 
	C245.774338,296.273132 243.364502,298.609009 240.586166,300.983337 
	C236.885834,302.401459 233.554001,303.781128 229.805023,305.115814 
	C225.244568,304.904846 221.101242,304.738861 216.957916,304.572876 
M286.066559,207.079910 
	C286.841980,208.432953 287.617401,209.785980 288.910706,212.042694 
	C293.427826,205.841187 292.136414,199.234329 294.346527,193.554214 
	C293.935638,193.130264 293.524750,192.706314 293.113861,192.282364 
	C287.334564,194.297455 281.555298,196.312531 275.776001,198.327621 
	C275.834839,198.836655 275.893646,199.345703 275.952484,199.854752 
	C277.850922,200.553925 279.757751,201.848557 281.645996,201.822006 
	C285.041351,201.774277 285.867188,203.527893 286.066559,207.079910 
z"/>
<path fill="#DA6327" opacity="1.000000" stroke="none" 
	d="
M171.316132,219.134247 
	C171.468307,216.342865 171.620483,213.551498 171.844269,210.357300 
	C175.451630,209.642365 177.957123,210.820419 180.517883,213.641541 
	C183.283585,216.688477 187.417633,218.455353 190.782394,221.007843 
	C193.764420,223.270004 196.774323,225.618835 199.174561,228.438004 
	C199.777496,229.146194 198.089828,231.804581 197.039673,233.936142 
	C196.398849,234.493454 196.204819,234.709717 196.042419,234.954346 
	C196.042419,234.954346 195.999222,234.999466 195.806427,235.153259 
	C195.396835,235.500458 195.217087,235.723679 195.074387,235.976730 
	C195.075485,236.430603 195.076584,236.884460 195.084793,237.707870 
	C195.091904,238.077408 195.026596,238.068390 194.706512,238.102905 
	C193.580444,238.430878 192.774445,238.724319 191.713989,239.194733 
	C191.012161,240.257431 190.564804,241.143173 190.116394,242.075134 
	C190.115341,242.121338 190.024826,242.140045 190.024826,242.140045 
	C183.057968,243.959351 180.161560,236.812286 174.750137,235.162964 
	C173.722916,234.849884 172.894547,233.884338 171.673523,233.129486 
	C171.345200,232.528717 171.317795,232.018295 171.444672,230.870209 
	C171.513458,228.907974 171.427979,227.583405 171.342499,226.258820 
	C171.313248,224.430908 171.283997,222.602997 171.328674,220.234406 
	C171.460449,219.495316 171.431625,219.308807 171.316132,219.134247 
z"/>
<path fill="#CE5F2B" opacity="1.000000" stroke="none" 
	d="
M210.237244,253.030289 
	C208.478104,257.745422 206.718979,262.460602 204.580887,267.504242 
	C203.649170,266.939697 202.407272,265.737732 202.648117,265.200409 
	C205.744843,258.291840 200.229172,255.839493 196.238846,252.771469 
	C193.504059,250.668777 190.350952,249.897675 187.063904,251.716034 
	C193.306763,244.872360 199.619827,238.388138 205.932892,231.903931 
	C207.181458,236.797318 208.302887,241.730560 209.810822,246.542679 
	C210.046631,247.295242 212.040710,247.496826 213.615372,247.974106 
	C214.008987,247.995026 214.047485,248.024628 214.047485,248.024628 
	C214.067520,248.198151 214.087540,248.371674 214.157074,248.802521 
	C214.206573,249.059875 214.130783,249.119049 213.835785,249.216370 
	C213.045822,249.893539 212.550888,250.473419 212.055939,251.053284 
	C212.055923,251.053268 212.000610,251.000000 211.777252,251.160492 
	C211.115005,251.890747 210.676132,252.460510 210.237244,253.030289 
z"/>
<path fill="#000000" opacity="1.000000" stroke="none" 
	d="
M205.968842,231.574799 
	C199.619827,238.388138 193.306763,244.872360 187.003082,251.920578 
	C187.012451,252.484589 186.954987,252.909378 186.643890,253.111328 
	C185.861847,255.197144 185.390900,257.081024 184.579071,259.219299 
	C184.173859,261.908630 184.083710,264.343231 184.052109,266.778595 
	C184.016846,269.497040 184.034790,272.216156 184.029572,274.934998 
	C183.407791,273.501312 182.786011,272.067657 181.985901,270.339661 
	C182.544632,263.914276 182.752930,257.651917 184.229858,251.704590 
	C185.033295,248.469330 187.991913,245.769272 190.001648,242.483932 
	C190.024826,242.140045 190.115341,242.121338 190.445282,242.063324 
	C191.205093,241.383957 191.634964,240.762604 192.382568,240.079651 
	C193.475723,239.368164 194.251160,238.718277 195.026596,238.068390 
	C195.026596,238.068390 195.091904,238.077408 195.107178,238.047592 
	C199.040100,235.121567 202.957733,232.225357 206.875366,229.329147 
	C206.730865,228.781143 206.586349,228.233139 206.441849,227.685150 
	C206.296173,228.871994 206.150482,230.058838 205.968842,231.574799 
z"/>
<path fill="#CE5F2B" opacity="1.000000" stroke="none" 
	d="
M213.992752,247.976974 
	C213.976517,247.958923 214.147049,247.939758 214.097260,247.982193 
	C214.047485,248.024628 214.008987,247.995026 213.992752,247.976974 
z"/>
<path fill="#D05926" opacity="1.000000" stroke="none" 
	d="
M195.238525,235.838287 
	C195.217087,235.723679 195.396835,235.500458 195.784058,235.175049 
	C195.797974,235.285049 195.614029,235.503983 195.238525,235.838287 
z"/>
<path fill="#CE5F2B" opacity="1.000000" stroke="none" 
	d="
M212.509308,246.492065 
	C212.517563,246.513596 212.501068,246.470520 212.509308,246.492065 
z"/>
<path fill="#CE5F2B" opacity="1.000000" stroke="none" 
	d="
M216.485901,245.483582 
	C216.506958,245.475357 216.464844,245.491791 216.485901,245.483582 
z"/>
<path fill="#CE5F2B" opacity="1.000000" stroke="none" 
	d="
M218.488068,243.488831 
	C218.507080,243.481903 218.469055,243.495743 218.488068,243.488831 
z"/>
<path fill="#D05926" opacity="1.000000" stroke="none" 
	d="
M196.217209,234.824249 
	C196.204819,234.709717 196.398849,234.493454 196.802841,234.180450 
	C196.809311,234.290909 196.612915,234.503845 196.217209,234.824249 
z"/>
<path fill="#EF9242" opacity="1.000000" stroke="none" 
	d="
M301.128296,208.113037 
	C301.422394,205.374084 302.000641,202.630249 301.953461,199.897186 
	C301.844238,193.570633 296.572021,188.252396 290.853363,185.783829 
	C286.092712,183.728821 282.137970,184.724823 277.224976,185.826263 
	C272.125458,181.287247 267.630280,176.940323 263.135132,172.593399 
	C269.408447,166.915039 276.537109,163.732452 285.209015,164.941986 
	C286.665070,165.145096 288.150757,165.135391 289.879974,165.783798 
	C290.745605,166.198547 291.354034,166.053513 291.962463,165.908478 
	C291.962463,165.908463 292.023010,165.475708 292.091492,165.269150 
	C293.790192,167.525208 296.209045,169.790131 296.886261,172.491653 
	C298.292725,178.102249 299.303802,179.098785 304.740692,177.434280 
	C310.695740,175.611160 313.230499,177.195419 314.147858,183.271378 
	C314.346100,184.584259 314.667389,185.878555 314.910187,187.620422 
	C314.888367,188.059402 315.001434,188.002151 315.001434,188.002151 
	C316.984894,190.439621 318.968353,192.877075 320.979980,196.124985 
	C319.844055,203.267075 318.747620,209.613358 317.388977,215.902985 
	C317.278931,216.412445 315.309418,216.906189 314.316711,216.738724 
	C313.147736,216.541504 312.101746,215.615067 310.666718,214.924820 
	C307.263428,212.600876 304.195862,210.356949 301.128296,208.113037 
z"/>
<path fill="#EC8D3F" opacity="1.000000" stroke="none" 
	d="
M330.195129,207.002609 
	C330.622070,227.333511 330.686829,247.643555 330.701050,268.403687 
	C330.426117,267.158325 330.201721,265.462891 329.980927,262.916199 
	C329.975311,256.048828 329.966064,250.032761 329.968445,243.571289 
	C328.803253,237.499237 327.626434,231.872559 326.599579,226.962830 
	C321.969818,226.962830 318.439758,226.962830 315.046997,226.653595 
	C322.280853,220.194580 325.708618,212.516159 325.037506,203.055664 
	C324.966553,202.055099 325.565704,201.007004 325.853943,199.980957 
	C327.180267,202.314560 328.506592,204.648163 330.195129,207.002609 
z"/>
<path fill="#EC8D3F" opacity="1.000000" stroke="none" 
	d="
M311.002441,215.004837 
	C312.101746,215.615067 313.147736,216.541504 314.316711,216.738724 
	C315.309418,216.906189 317.278931,216.412445 317.388977,215.902985 
	C318.747620,209.613358 319.844055,203.267075 321.011261,196.484604 
	C321.460449,196.050064 321.906464,196.066345 322.680115,196.553772 
	C323.003387,199.827805 323.103058,202.635361 322.976685,205.432724 
	C322.441071,217.287628 315.181244,224.752777 306.172913,230.688278 
	C307.986267,225.291855 317.519562,222.652161 311.002441,215.004837 
z"/>
<path fill="#000000" opacity="1.000000" stroke="none" 
	d="
M306.131897,231.023636 
	C315.181244,224.752777 322.441071,217.287628 322.976685,205.432724 
	C323.103058,202.635361 323.003387,199.827805 323.014587,196.570740 
	C324.005554,197.183548 324.989624,198.250549 325.913818,199.649261 
	C325.565704,201.007004 324.966553,202.055099 325.037506,203.055664 
	C325.708618,212.516159 322.280853,220.194580 314.773773,226.749695 
	C313.888245,227.745193 313.413239,228.335342 312.680450,229.014618 
	C312.071411,229.526474 311.720123,229.949219 311.304626,230.379715 
	C311.240356,230.387482 311.227295,230.516281 311.002319,230.688843 
	C310.157043,231.558685 309.536713,232.255981 308.672180,233.027740 
	C308.253357,233.384720 308.078735,233.667236 307.663513,234.028488 
	C307.264099,234.395233 307.105225,234.683243 306.959229,234.964203 
	C306.972076,234.957138 306.934723,234.955597 306.661011,235.057220 
	C305.905731,235.757492 305.424225,236.356110 304.971924,236.966827 
	C305.001129,236.978928 304.995880,236.915939 304.643677,236.821716 
	C304.873016,234.844116 305.454590,232.960739 306.067810,231.077667 
	C306.099457,231.077972 306.131897,231.023636 306.131897,231.023636 
z"/>
<path fill="#E67C33" opacity="1.000000" stroke="none" 
	d="
M185.254700,165.181580 
	C185.273941,164.530212 185.533310,164.036545 185.916306,163.292053 
	C186.694611,161.145187 187.781067,159.279114 187.915070,157.346970 
	C188.204117,153.179306 188.003937,148.977707 188.003937,144.144577 
	C197.618362,152.103958 206.093796,159.329971 214.802536,166.262939 
	C221.627701,171.696411 228.741608,176.767166 235.727371,181.998886 
	C237.643341,183.433792 239.559753,184.868103 241.475983,186.302704 
	C239.680084,188.005936 237.839615,189.665253 236.103058,191.426971 
	C234.821686,192.726898 233.675903,194.160461 232.234268,195.766876 
	C225.342239,192.162994 218.460876,188.661591 212.096649,184.389801 
	C206.504852,180.636490 201.610992,175.859695 196.180069,171.844391 
	C192.840591,169.375397 189.071182,167.487900 185.254700,165.181580 
z"/>
<path fill="#EC8D3F" opacity="1.000000" stroke="none" 
	d="
M257.707184,174.127304 
	C257.269989,174.998825 256.501587,175.922272 255.453400,176.950256 
	C255.907761,176.096268 256.641846,175.137756 257.707184,174.127304 
z"/>
<path fill="#EC8D3F" opacity="1.000000" stroke="none" 
	d="
M258.860046,173.184509 
	C258.887848,173.338501 258.724945,173.634506 258.304047,173.986038 
	C258.219818,173.773544 258.427582,173.535187 258.860046,173.184509 
z"/>
<path fill="#EC8D3F" opacity="1.000000" stroke="none" 
	d="
M259.785095,172.347504 
	C259.977020,172.604309 259.821075,172.849091 259.272095,173.022522 
	C259.191528,172.816483 259.377594,172.611252 259.785095,172.347504 
z"/>
<path fill="#E87F35" opacity="1.000000" stroke="none" 
	d="
M329.956818,244.016693 
	C329.966064,250.032761 329.975311,256.048828 329.972961,262.533203 
	C325.638580,260.830750 321.239014,258.797699 317.018219,256.444000 
	C313.860870,254.683304 311.180389,251.657150 307.853668,250.695358 
	C300.795471,248.654770 296.236725,243.733093 291.983276,238.475037 
	C289.881866,235.877289 288.541565,233.845505 286.004150,237.097488 
	C284.034576,235.600433 282.367615,234.333374 280.350372,232.684311 
	C279.987030,231.839111 279.973969,231.375900 279.960938,230.912704 
	C279.983185,230.559814 280.143188,230.288010 280.972626,229.939682 
	C281.979675,229.160309 282.455078,228.538544 282.930481,227.916779 
	C283.404694,227.328354 283.878906,226.739929 284.995056,226.035034 
	C288.553375,226.427719 291.544098,226.683807 294.366425,227.513016 
	C297.564056,228.452530 300.623169,229.774628 299.467590,234.340179 
	C299.307648,234.972061 301.107544,236.100006 302.223755,237.177811 
	C303.296875,237.210205 304.146362,237.063065 304.995880,236.915924 
	C304.995880,236.915939 305.001129,236.978928 305.314270,236.981613 
	C306.084381,236.984573 306.541382,236.984863 307.358124,237.061035 
	C309.543091,237.253998 311.368286,237.371063 313.193451,237.488129 
	C313.277466,237.024323 313.361450,236.560516 313.445435,236.096725 
	C312.629486,235.399673 311.813507,234.702621 311.184937,233.856018 
	C311.611481,233.491470 311.820343,233.250259 312.355072,232.913513 
	C316.593170,231.506454 319.403046,233.226074 321.966095,235.947189 
	C324.560822,238.701889 327.287781,241.332016 329.956818,244.016693 
z"/>
<path fill="#E87F35" opacity="1.000000" stroke="none" 
	d="
M277.469788,235.876221 
	C277.420715,235.207001 277.656921,234.409653 278.244568,233.312683 
	C278.595978,233.013031 279.005585,233.035599 279.005585,233.035599 
	C278.588745,233.939774 278.171936,234.843948 277.469788,235.876221 
z"/>
<path fill="#E87F35" opacity="1.000000" stroke="none" 
	d="
M279.025848,238.824707 
	C278.357910,238.568588 277.762939,238.072159 277.179474,237.278290 
	C277.826904,237.515350 278.462860,238.049866 279.025848,238.824707 
z"/>
<path fill="#E8853B" opacity="1.000000" stroke="none" 
	d="
M279.255676,233.024017 
	C279.005585,233.035599 278.595978,233.013031 278.390930,233.010056 
	C278.593262,232.381363 279.000702,231.755661 279.684509,231.021332 
	C279.973969,231.375900 279.987030,231.839111 280.003174,232.649841 
	C279.839417,233.002396 279.672607,233.007416 279.255676,233.024017 
z"/>
<path fill="#DA6327" opacity="1.000000" stroke="none" 
	d="
M304.819946,304.640198 
	C302.689911,305.732361 300.448029,306.511200 298.018127,307.587280 
	C297.830078,307.884583 297.355164,307.754120 296.863495,307.414154 
	C294.480286,306.715881 292.593750,306.082947 290.696320,306.048492 
	C283.799927,305.923096 276.899872,305.998108 269.927521,305.653748 
	C265.741730,300.356201 263.035645,293.257812 254.354721,295.200165 
	C254.085953,295.260315 253.471039,293.773315 253.225342,292.745056 
	C256.953064,288.658112 260.472961,284.833771 263.992859,281.009399 
	C264.779297,281.241455 265.882324,281.930237 266.304871,281.637360 
	C273.059143,276.955627 277.285187,282.736511 281.069366,286.057953 
	C288.595154,292.663422 295.317902,300.166107 304.819946,304.640198 
z"/>
<path fill="#D3652E" opacity="1.000000" stroke="none" 
	d="
M264.172546,280.724915 
	C260.472961,284.833771 256.953064,288.658112 252.990845,292.663330 
	C251.405792,293.270508 250.263046,293.696869 249.059097,294.056824 
	C248.997894,293.990356 248.877365,293.855804 248.877365,293.855804 
	C250.172821,292.125366 251.291229,290.220642 252.793915,288.694183 
	C259.897125,281.478699 267.105438,274.366638 274.581299,267.091980 
	C272.304321,270.556030 269.762390,274.175751 267.115112,277.716736 
	C266.349548,278.740814 265.281616,279.538818 264.172546,280.724915 
z"/>
<path fill="#D3652E" opacity="1.000000" stroke="none" 
	d="
M275.241394,266.815582 
	C275.417633,266.307220 275.882812,265.713593 276.614258,265.016602 
	C276.430420,265.518982 275.980377,266.124634 275.241394,266.815582 
z"/>
<path fill="#000000" opacity="1.000000" stroke="none" 
	d="
M235.056213,357.237305 
	C236.213562,354.148224 237.354675,351.458221 238.744492,348.182007 
	C239.893097,351.334961 240.912262,354.132599 242.505890,358.507111 
	C239.497513,358.156250 237.268753,357.896301 235.056213,357.237305 
z"/>
<path fill="#EF9242" opacity="1.000000" stroke="none" 
	d="
M261.507812,167.492371 
	C261.515228,167.512558 261.500397,167.472198 261.507812,167.492371 
z"/>
<path fill="#000000" opacity="1.000000" stroke="none" 
	d="
M148.577118,344.887756 
	C153.429871,344.675598 157.914429,344.237976 161.022659,348.815399 
	C163.461884,352.407562 164.009018,356.296814 162.320984,359.891693 
	C160.352615,364.083557 157.271713,367.674377 151.311218,367.161469 
	C145.858276,367.091278 142.530014,363.527802 141.683029,359.645721 
	C140.807541,355.632935 139.775604,350.232483 145.101700,347.289642 
	C146.227798,346.667450 147.195618,345.758759 148.577118,344.887756 
z"/>
<path fill="#CE5F2B" opacity="1.000000" stroke="none" 
	d="
M149.491714,341.507080 
	C149.484894,341.488281 149.498535,341.525909 149.491714,341.507080 
z"/>
<path fill="#D05423" opacity="1.000000" stroke="none" 
	d="
M183.883057,275.265076 
	C184.034790,272.216156 184.016846,269.497040 184.052109,266.778595 
	C184.083710,264.343231 184.173859,261.908630 184.794571,259.003387 
	C185.885651,256.658508 186.420319,254.783951 186.954987,252.909378 
	C186.954987,252.909378 187.012451,252.484589 187.073273,252.280045 
	C190.350952,249.897675 193.504059,250.668777 196.238846,252.771469 
	C200.229172,255.839493 205.744843,258.291840 202.648117,265.200409 
	C202.407272,265.737732 203.649170,266.939697 204.517227,267.925934 
	C204.868988,268.183319 204.905457,268.347504 204.766647,268.951294 
	C204.751984,269.923340 204.912598,270.455780 205.073212,270.988220 
	C205.073212,270.988220 205.009109,270.991882 205.122665,271.157104 
	C205.388565,271.580536 205.575256,271.810913 205.796280,272.013489 
	C206.206680,272.759918 206.617081,273.506348 207.028015,274.584778 
	C202.507462,276.730469 195.652206,277.350037 193.978958,280.620667 
	C191.015915,286.412445 184.989960,285.099304 181.344421,288.873230 
	C181.922302,284.520905 182.829422,280.058014 183.883057,275.265076 
z"/>
<path fill="#D05423" opacity="1.000000" stroke="none" 
	d="
M207.018204,275.358826 
	C209.846344,277.273285 212.614792,279.551575 215.972015,282.162598 
	C217.388260,282.628204 218.215729,282.761078 219.043198,282.893951 
	C221.392426,282.920807 223.741638,282.947662 226.315445,283.140076 
	C226.209213,284.414673 225.378082,286.361938 225.622269,286.507690 
	C229.621033,288.894531 229.689560,295.120483 235.072632,296.173462 
	C235.532272,296.263397 235.689301,297.900421 235.815277,298.990814 
	C235.425385,299.402893 235.252838,299.672150 235.125992,299.970642 
	C229.359070,304.767548 222.788269,303.878815 216.166519,302.660492 
	C215.253220,302.492493 214.327881,302.389954 213.240509,302.596863 
	C209.419174,301.342041 205.589081,300.051483 202.163193,298.064087 
	C198.978012,296.216400 200.130081,293.312378 204.683090,290.183655 
	C206.908295,288.654541 208.782028,286.613983 212.001724,283.748657 
	C204.051620,282.973389 204.734009,279.633118 207.018204,275.358826 
z"/>
<path fill="#D98850" opacity="1.000000" stroke="none" 
	d="
M216.863708,304.959045 
	C221.101242,304.738861 225.244568,304.904846 229.752930,305.435730 
	C230.101349,306.445129 230.084732,307.089630 230.068130,307.734161 
	C223.361145,307.822449 216.654160,307.910736 209.494415,307.904510 
	C211.617584,306.988434 214.193542,306.166840 216.863708,304.959045 
z"/>
<path fill="#D05423" opacity="1.000000" stroke="none" 
	d="
M175.438995,288.996704 
	C175.092758,288.177612 175.054047,287.465088 175.008865,286.396515 
	C176.785141,286.954987 178.567886,287.869476 180.668488,288.897644 
	C180.783951,289.839508 180.581573,290.667664 180.178436,291.750336 
	C178.567291,291.037659 177.156906,290.070465 175.438995,288.996704 
z"/>
<path fill="#D05423" opacity="1.000000" stroke="none" 
	d="
M213.176727,303.128357 
	C213.312317,303.110596 213.599808,303.280426 213.976654,303.689117 
	C213.790863,303.759369 213.545044,303.555359 213.176727,303.128357 
z"/>
<path fill="#C44A20" opacity="1.000000" stroke="none" 
	d="
M160.991638,372.986755 
	C160.981888,372.974365 161.144043,372.770752 161.144043,372.770752 
	C161.144043,372.770752 161.144684,372.945129 161.085526,372.981812 
	C161.026367,373.018524 161.001389,372.999115 160.991638,372.986755 
z"/>
<path fill="#E27431" opacity="1.000000" stroke="none" 
	d="
M290.999939,368.397247 
	C293.788910,368.007172 296.567078,367.972656 299.345001,367.986328 
	C305.277466,368.015503 305.866791,368.656647 305.732300,375.307678 
	C300.395721,375.721252 295.151581,375.745026 289.443481,375.695251 
	C289.649353,373.339355 290.319214,371.057007 290.999939,368.397247 
z"/>
<path fill="#D3652E" opacity="1.000000" stroke="none" 
	d="
M230.531067,307.778198 
	C230.084732,307.089630 230.101349,306.445129 230.170059,305.480713 
	C233.554001,303.781128 236.885834,302.401459 240.615417,301.018188 
	C241.013168,301.014557 241.072189,301.083801 240.977905,301.404480 
	C239.902924,302.885132 238.922226,304.045166 237.271622,305.997559 
	C248.811584,305.997559 259.406403,305.997559 270.001221,305.997559 
	C276.899872,305.998108 283.799927,305.923096 290.696320,306.048492 
	C292.593750,306.082947 294.480286,306.715881 296.631775,307.330811 
	C274.925842,307.665710 252.959930,307.743988 230.531067,307.778198 
z"/>
<path fill="#D05926" opacity="1.000000" stroke="none" 
	d="
M171.297943,226.629822 
	C171.427979,227.583405 171.513458,228.907974 171.462677,230.487122 
	C171.302063,229.494736 171.277725,228.247772 171.297943,226.629822 
z"/>
<path fill="#DE6C2E" opacity="1.000000" stroke="none" 
	d="
M171.300781,219.316162 
	C171.431625,219.308807 171.460449,219.495316 171.356934,219.778000 
	C171.311279,219.862259 171.285431,219.498077 171.300781,219.316162 
z"/>
<path fill="#E8853B" opacity="1.000000" stroke="none" 
	d="
M263.128357,172.606689 
	C267.630280,176.940323 272.125458,181.287247 276.833801,185.908127 
	C269.926056,193.397308 262.786102,200.593979 255.705566,207.848618 
	C254.697235,208.881729 253.976944,210.195969 252.689987,211.786896 
	C251.226990,212.117722 249.302505,212.072922 249.298584,211.961075 
	C249.201996,209.194016 247.806610,208.407471 245.188660,208.500504 
	C244.399612,208.528549 243.593994,207.099457 242.736099,206.412628 
	C241.444992,205.378937 239.950760,204.553619 238.828278,203.369232 
	C237.959671,202.452759 237.528320,201.121857 236.902588,199.975189 
	C236.902588,199.975189 236.906097,199.906631 237.247253,199.813080 
	C237.956757,198.812302 238.325089,197.905106 238.693390,196.997894 
	C242.584503,193.374161 246.596664,189.870270 250.334274,186.094589 
	C254.461807,181.925003 258.337616,177.506226 262.714508,173.087646 
	C263.105957,172.979294 263.246918,172.867783 263.246918,172.867783 
	C263.246918,172.867783 263.113220,172.647736 263.113220,172.647736 
	C263.113220,172.647736 263.121552,172.619965 263.128357,172.606689 
z"/>
<path fill="#E27431" opacity="1.000000" stroke="none" 
	d="
M253.937454,255.957077 
	C253.004913,252.156631 251.880630,248.387863 251.244736,244.538406 
	C251.024689,243.206360 251.637863,241.353622 252.530304,240.294998 
	C254.898956,237.485306 257.627472,234.979004 260.749817,232.068283 
	C261.515015,231.502060 261.743134,231.219543 261.971283,230.937027 
	C261.971283,230.937027 261.970795,231.000397 262.384766,231.007874 
	C264.220428,230.990860 265.642090,230.966339 267.063751,230.941833 
	C267.063751,230.941833 267.033813,230.995178 267.151184,231.183990 
	C267.530457,231.578735 267.792358,231.784668 268.054230,231.990585 
	C268.054230,231.990585 267.997314,232.002838 268.132904,232.191223 
	C268.533203,232.583527 268.797882,232.787460 269.062592,232.991394 
	C269.062592,232.991394 269.000488,233.000854 269.136139,233.184418 
	C269.535309,233.572510 269.798798,233.777054 270.062317,233.981598 
	C270.062317,233.981598 270.002014,233.987610 270.092590,234.211563 
	C270.404541,234.702988 270.625977,234.970474 270.847382,235.237946 
	C270.847382,235.237946 270.965912,235.517960 271.112335,235.905258 
	C271.531128,236.523056 271.803497,236.753540 272.075867,236.984039 
	C272.075867,236.984039 272.010712,236.981110 272.109436,237.194107 
	C272.433258,237.668686 272.658325,237.930283 272.883423,238.191864 
	C272.883423,238.191864 272.978180,238.507523 273.016907,238.975647 
	C273.308350,239.989395 273.561005,240.535049 273.813660,241.080704 
	C277.939117,249.208023 276.705597,256.952972 271.851471,264.929504 
	C271.369507,265.581879 271.213409,265.789307 271.089203,266.020721 
	C271.089203,266.020721 271.113190,266.131134 270.753326,266.116516 
	C268.918610,266.471375 267.443726,266.840851 266.446869,267.090607 
	C262.080231,263.204254 258.008820,259.580658 253.937454,255.957077 
z"/>
<path fill="#E07535" opacity="1.000000" stroke="none" 
	d="
M236.566162,200.105865 
	C237.528320,201.121857 237.959671,202.452759 238.828278,203.369232 
	C239.950760,204.553619 241.444992,205.378937 242.736099,206.412628 
	C243.593994,207.099457 244.399612,208.528549 245.188660,208.500504 
	C247.806610,208.407471 249.201996,209.194016 249.298584,211.961075 
	C249.302505,212.072922 251.226990,212.117722 252.540863,212.108490 
	C254.071442,216.053192 255.317825,220.083160 256.658936,224.419403 
	C253.420258,227.926178 249.468231,232.704330 244.893143,236.783691 
	C243.841446,237.721420 239.744156,237.068298 238.586899,235.772888 
	C229.648819,225.767975 229.019760,213.911407 234.083603,202.003586 
	C234.405289,201.247147 235.496506,200.817978 236.566162,200.105865 
z"/>
<path fill="#DE6C2E" opacity="1.000000" stroke="none" 
	d="
M253.621368,256.097961 
	C258.008820,259.580658 262.080231,263.204254 266.446869,267.090607 
	C267.443726,266.840851 268.918610,266.471375 270.698669,266.130859 
	C266.394714,271.228912 261.812592,276.322968 257.161682,281.353455 
	C255.536514,283.111267 253.741882,284.712433 251.644943,286.140930 
	C250.789474,283.752625 251.009811,280.571167 249.689667,279.685303 
	C247.125656,277.964722 243.642120,277.671478 240.654724,276.494537 
	C239.573959,276.068817 238.823044,274.805695 237.921631,273.924683 
	C243.049515,268.029388 248.177399,262.134125 253.621368,256.097961 
z"/>
<path fill="#D05926" opacity="1.000000" stroke="none" 
	d="
M237.619598,274.066895 
	C238.823044,274.805695 239.573959,276.068817 240.654724,276.494537 
	C243.642120,277.671478 247.125656,277.964722 249.689667,279.685303 
	C251.009811,280.571167 250.789474,283.752625 251.328598,286.302277 
	C251.391953,286.707764 251.339203,286.730072 250.972809,286.595947 
	C249.426941,287.983093 248.247467,289.504395 247.067963,291.025665 
	C247.067963,291.025665 247.052795,291.047974 246.745758,291.122070 
	C245.979248,291.800171 245.519791,292.404175 245.060318,293.008179 
	C245.060318,293.008179 245.059540,293.062042 244.752686,293.122620 
	C244.010605,293.543335 243.575394,293.903503 243.140167,294.263672 
	C243.140152,294.263672 243.134537,294.132874 242.972687,294.316589 
	C242.559265,295.009613 242.307693,295.518982 242.056122,296.028351 
	C242.056137,296.028351 242.033463,296.033722 241.745300,296.103271 
	C240.953964,296.719757 240.450775,297.266754 239.947601,297.813721 
	C239.947601,297.813721 239.509949,298.011261 239.079102,298.179565 
	C238.356842,298.499573 238.168060,298.734070 238.081894,299.051300 
	C238.081894,299.051300 238.074860,299.105194 237.710907,299.041748 
	C236.893600,298.925110 236.440247,298.871918 235.986908,298.818726 
	C235.689301,297.900421 235.532272,296.263397 235.072632,296.173462 
	C229.689560,295.120483 229.621033,288.894531 225.622269,286.507690 
	C225.378082,286.361938 226.209213,284.414673 226.753296,283.090179 
	C230.416916,279.986176 233.867249,277.097626 237.619598,274.066895 
z"/>
<path fill="#E8853B" opacity="1.000000" stroke="none" 
	d="
M302.000153,236.998291 
	C301.107544,236.100006 299.307648,234.972061 299.467590,234.340179 
	C300.623169,229.774628 297.564056,228.452530 294.366425,227.513016 
	C291.544098,226.683807 288.553375,226.427719 285.257751,225.916687 
	C289.360809,221.331238 293.843170,216.747681 298.843628,211.830414 
	C299.545227,210.979218 299.728668,210.461731 299.912079,209.944244 
	C299.912079,209.944244 299.948151,209.995270 300.125854,209.841522 
	C300.539520,209.486877 300.687225,209.234390 300.746643,208.930298 
	C300.746643,208.930298 300.942474,208.522202 301.035400,208.317612 
	C304.195862,210.356949 307.263428,212.600876 310.666718,214.924820 
	C317.519562,222.652161 307.986267,225.291855 306.172913,230.688278 
	C306.131897,231.023636 306.099457,231.077972 305.689331,231.090088 
	C301.461090,231.552017 302.154419,234.510849 302.000153,236.998291 
z"/>
<path fill="#F29A4A" opacity="1.000000" stroke="none" 
	d="
M286.052124,206.680908 
	C285.867188,203.527893 285.041351,201.774277 281.645996,201.822006 
	C279.757751,201.848557 277.850922,200.553925 275.952484,199.854752 
	C275.893646,199.345703 275.834839,198.836655 275.776001,198.327621 
	C281.555298,196.312531 287.334564,194.297455 293.113861,192.282364 
	C293.524750,192.706314 293.935638,193.130264 294.346527,193.554214 
	C292.136414,199.234329 293.427826,205.841187 288.910706,212.042694 
	C287.617401,209.785980 286.841980,208.432953 286.052124,206.680908 
z"/>
<path fill="#D3652E" opacity="1.000000" stroke="none" 
	d="
M240.983917,300.979736 
	C243.364502,298.609009 245.774338,296.273132 248.530777,293.896515 
	C248.877365,293.855804 248.997894,293.990356 248.955643,294.378357 
	C246.299652,296.872192 243.685928,298.977997 241.072205,301.083801 
	C241.072189,301.083801 241.013168,301.014557 240.983917,300.979736 
z"/>
<path fill="#DE6C2E" opacity="1.000000" stroke="none" 
	d="
M247.370697,290.913940 
	C248.247467,289.504395 249.426941,287.983093 250.953278,286.574768 
	C250.091217,288.059235 248.882309,289.430756 247.370697,290.913940 
z"/>
<path fill="#D98850" opacity="1.000000" stroke="none" 
	d="
M266.964233,230.607407 
	C265.642090,230.966339 264.220428,230.990860 262.373840,230.977356 
	C263.289856,228.521378 264.923615,228.263641 266.964233,230.607407 
z"/>
<path fill="#E07535" opacity="1.000000" stroke="none" 
	d="
M238.421173,197.114868 
	C238.325089,197.905106 237.956757,198.812302 237.281586,199.812958 
	C237.366150,199.014877 237.757538,198.123352 238.421173,197.114868 
z"/>
<path fill="#E8853B" opacity="1.000000" stroke="none" 
	d="
M282.654358,228.023987 
	C282.455078,228.538544 281.979675,229.160309 281.204590,229.863998 
	C281.396027,229.341003 281.887146,228.736099 282.654358,228.023987 
z"/>
<path fill="#DE6C2E" opacity="1.000000" stroke="none" 
	d="
M235.815277,298.990814 
	C236.440247,298.871918 236.893600,298.925110 237.683777,299.039917 
	C237.275955,299.392242 236.531311,299.682953 235.456329,299.972168 
	C235.252838,299.672150 235.425385,299.402893 235.815277,298.990814 
z"/>
<path fill="#F29A4A" opacity="1.000000" stroke="none" 
	d="
M291.643677,165.951477 
	C291.354034,166.053513 290.745605,166.198547 290.090698,166.126099 
	C290.471130,165.937241 290.898010,165.965851 291.643677,165.951477 
z"/>
<path fill="#DE6C2E" opacity="1.000000" stroke="none" 
	d="
M212.401337,251.032379 
	C212.550888,250.473419 213.045822,249.893539 213.800812,249.183350 
	C213.622818,249.705826 213.184784,250.358643 212.401337,251.032379 
z"/>
<path fill="#DE6C2E" opacity="1.000000" stroke="none" 
	d="
M240.245087,297.826050 
	C240.450775,297.266754 240.953964,296.719757 241.743454,296.114777 
	C241.534042,296.650604 241.038315,297.244476 240.245087,297.826050 
z"/>
<path fill="#DE6C2E" opacity="1.000000" stroke="none" 
	d="
M210.563492,253.023041 
	C210.676132,252.460510 211.115005,251.890747 211.803787,251.188019 
	C211.665710,251.708633 211.277725,252.362213 210.563492,253.023041 
z"/>
<path fill="#DE6C2E" opacity="1.000000" stroke="none" 
	d="
M245.335403,292.919159 
	C245.519791,292.404175 245.979248,291.800171 246.733093,291.126648 
	C246.555130,291.648102 246.082809,292.239136 245.335403,292.919159 
z"/>
<path fill="#D05926" opacity="1.000000" stroke="none" 
	d="
M218.883072,282.590576 
	C218.215729,282.761078 217.388260,282.628204 216.299408,282.311951 
	C216.932999,282.181458 217.827972,282.234344 218.883072,282.590576 
z"/>
<path fill="#EF9242" opacity="1.000000" stroke="none" 
	d="
M299.616913,210.028625 
	C299.728668,210.461731 299.545227,210.979218 299.142487,211.663849 
	C299.056030,211.258316 299.188873,210.685654 299.616913,210.028625 
z"/>
<path fill="#CE5F2B" opacity="1.000000" stroke="none" 
	d="
M205.046951,270.656097 
	C204.912598,270.455780 204.751984,269.923340 204.719391,269.199097 
	C204.905151,269.446198 204.962921,269.885071 205.046951,270.656097 
z"/>
<path fill="#D98850" opacity="1.000000" stroke="none" 
	d="
M273.885498,240.748108 
	C273.561005,240.535049 273.308350,239.989395 273.019409,239.140411 
	C273.307892,239.363205 273.632599,239.889359 273.885498,240.748108 
z"/>
<path fill="#DE6C2E" opacity="1.000000" stroke="none" 
	d="
M243.455750,294.384460 
	C243.575394,293.903503 244.010605,293.543335 244.725784,293.121429 
	C244.594269,293.541534 244.182785,294.023407 243.455750,294.384460 
z"/>
<path fill="#DE6C2E" opacity="1.000000" stroke="none" 
	d="
M242.359863,295.908783 
	C242.307693,295.518982 242.559265,295.009613 243.038147,294.316559 
	C243.064835,294.684967 242.864227,295.237091 242.359863,295.908783 
z"/>
<path fill="#EF9242" opacity="1.000000" stroke="none" 
	d="
M300.514771,209.001373 
	C300.687225,209.234390 300.539520,209.486877 300.116882,209.814240 
	C299.871582,209.579437 299.989105,209.290024 300.514771,209.001373 
z"/>
<path fill="#EF9242" opacity="1.000000" stroke="none" 
	d="
M263.022858,172.683685 
	C263.113220,172.647736 263.246918,172.867783 263.246918,172.867783 
	C263.246918,172.867783 263.105957,172.979294 263.022644,172.946655 
	C262.939301,172.914017 262.932495,172.719650 263.022858,172.683685 
z"/>
<path fill="#DE6C2E" opacity="1.000000" stroke="none" 
	d="
M271.314270,265.976501 
	C271.213409,265.789307 271.369507,265.581879 271.708771,265.279297 
	C271.971649,265.508057 271.864746,265.765411 271.314270,265.976501 
z"/>
<path fill="#CE5F2B" opacity="1.000000" stroke="none" 
	d="
M205.818756,271.757507 
	C205.575256,271.810913 205.388565,271.580536 205.130035,271.125885 
	C205.296295,271.120117 205.568771,271.310852 205.818756,271.757507 
z"/>
<path fill="#D98850" opacity="1.000000" stroke="none" 
	d="
M272.947876,237.881470 
	C272.658325,237.930283 272.433258,237.668686 272.119690,237.163147 
	C272.358276,237.136490 272.685303,237.353790 272.947876,237.881470 
z"/>
<path fill="#D98850" opacity="1.000000" stroke="none" 
	d="
M272.006592,236.705811 
	C271.803497,236.753540 271.531128,236.523056 271.126099,236.056671 
	C271.308075,236.023041 271.622681,236.225296 272.006592,236.705811 
z"/>
<path fill="#DE6C2E" opacity="1.000000" stroke="none" 
	d="
M238.329987,299.043335 
	C238.168060,298.734070 238.356842,298.499573 238.871323,298.299866 
	C239.084198,298.619568 238.912094,298.880737 238.329987,299.043335 
z"/>
<path fill="#D98850" opacity="1.000000" stroke="none" 
	d="
M270.911102,234.930023 
	C270.625977,234.970474 270.404541,234.702988 270.107910,234.185455 
	C270.346741,234.164276 270.660767,234.393188 270.911102,234.930023 
z"/>
<path fill="#D98850" opacity="1.000000" stroke="none" 
	d="
M269.993347,233.717712 
	C269.798798,233.777054 269.535309,233.572510 269.139435,233.153168 
	C269.312836,233.110184 269.618591,233.281998 269.993347,233.717712 
z"/>
<path fill="#D98850" opacity="1.000000" stroke="none" 
	d="
M268.996368,232.725510 
	C268.797882,232.787460 268.533203,232.583527 268.138855,232.162704 
	C268.316193,232.117096 268.623169,232.288361 268.996368,232.725510 
z"/>
<path fill="#D98850" opacity="1.000000" stroke="none" 
	d="
M267.991760,231.725006 
	C267.792358,231.784668 267.530457,231.578735 267.142487,231.154678 
	C267.320679,231.110840 267.624969,231.285126 267.991760,231.725006 
z"/>
<path fill="#D98850" opacity="1.000000" stroke="none" 
	d="
M261.682190,230.982513 
	C261.743134,231.219543 261.515015,231.502060 261.028076,231.886200 
	C260.977173,231.667892 261.185120,231.347961 261.682190,230.982513 
z"/>
<path fill="#D05926" opacity="1.000000" stroke="none" 
	d="
M192.064819,240.141266 
	C191.634964,240.762604 191.205093,241.383957 190.446350,242.017120 
	C190.564804,241.143173 191.012161,240.257431 191.738098,239.475525 
	C192.032715,239.766663 192.048767,239.953949 192.064819,240.141266 
z"/>
<path fill="#DE6C2E" opacity="1.000000" stroke="none" 
	d="
M192.382568,240.079651 
	C192.048767,239.953949 192.032715,239.766663 191.992554,239.298584 
	C192.774445,238.724319 193.580444,238.430878 194.706512,238.102905 
	C194.251160,238.718277 193.475723,239.368164 192.382568,240.079651 
z"/>
<path fill="#CE5F2B" opacity="1.000000" stroke="none" 
	d="
M186.643890,253.111328 
	C186.420319,254.783951 185.885651,256.658508 185.135468,258.748993 
	C185.390900,257.081024 185.861847,255.197144 186.643890,253.111328 
z"/>
<path fill="#F29A4A" opacity="1.000000" stroke="none" 
	d="
M315.000732,188.001068 
	C315.001434,188.002151 314.888367,188.059402 314.942963,188.028961 
	C314.997559,187.998535 315.000000,188.000000 315.000732,188.001068 
z"/>
<path fill="#E8853B" opacity="1.000000" stroke="none" 
	d="
M329.968445,243.571289 
	C327.287781,241.332016 324.560822,238.701889 321.966095,235.947189 
	C319.403046,233.226074 316.593170,231.506454 312.260254,232.492554 
	C311.615295,231.599335 311.421295,231.057800 311.227295,230.516281 
	C311.227295,230.516281 311.240356,230.387482 311.591980,230.319931 
	C312.275146,229.810089 312.606689,229.367783 312.938232,228.925476 
	C313.413239,228.335342 313.888245,227.745193 314.636475,227.058929 
	C318.439758,226.962830 321.969818,226.962830 326.599579,226.962830 
	C327.626434,231.872559 328.803253,237.499237 329.968445,243.571289 
z"/>
<path fill="#E8853B" opacity="1.000000" stroke="none" 
	d="
M310.997559,234.005585 
	C311.813507,234.702621 312.629486,235.399673 313.445435,236.096725 
	C313.361450,236.560516 313.277466,237.024323 313.193451,237.488129 
	C311.368286,237.371063 309.543091,237.253998 307.355957,236.722778 
	C306.974274,235.857605 306.954498,235.406601 306.934723,234.955597 
	C306.934723,234.955597 306.972076,234.957138 307.139832,234.812408 
	C307.538971,234.455414 307.737793,234.216095 307.904083,233.949753 
	C308.078735,233.667236 308.253357,233.384720 308.933136,233.157623 
	C309.958038,233.477234 310.477783,233.741409 310.997559,234.005585 
z"/>
<path fill="#EC8D3F" opacity="1.000000" stroke="none" 
	d="
M302.223755,237.177811 
	C302.154419,234.510849 301.461090,231.552017 305.657654,231.089783 
	C305.454590,232.960739 304.873016,234.844116 304.643677,236.821701 
	C304.146362,237.063065 303.296875,237.210205 302.223755,237.177811 
z"/>
<path fill="#EC8D3F" opacity="1.000000" stroke="none" 
	d="
M311.184937,233.856018 
	C310.477783,233.741409 309.958038,233.477234 309.177307,233.083160 
	C309.536713,232.255981 310.157043,231.558685 311.002350,230.688843 
	C311.421295,231.057800 311.615295,231.599335 311.904114,232.561829 
	C311.820343,233.250259 311.611481,233.491470 311.184937,233.856018 
z"/>
<path fill="#EC8D3F" opacity="1.000000" stroke="none" 
	d="
M306.661011,235.057220 
	C306.954498,235.406601 306.974274,235.857605 306.996216,236.646881 
	C306.541382,236.984863 306.084381,236.984573 305.285034,236.969513 
	C305.424225,236.356110 305.905731,235.757492 306.661011,235.057220 
z"/>
<path fill="#EC8D3F" opacity="1.000000" stroke="none" 
	d="
M312.680450,229.014618 
	C312.606689,229.367783 312.275146,229.810089 311.656219,230.312164 
	C311.720123,229.949219 312.071411,229.526474 312.680450,229.014618 
z"/>
<path fill="#EC8D3F" opacity="1.000000" stroke="none" 
	d="
M307.663513,234.028488 
	C307.737793,234.216095 307.538971,234.455414 307.126953,234.819458 
	C307.105225,234.683243 307.264099,234.395233 307.663513,234.028488 
z"/>
<path fill="#D05926" opacity="1.000000" stroke="none" 
	d="
M240.977921,301.404480 
	C243.685928,298.977997 246.299652,296.872192 249.016846,294.444824 
	C250.263046,293.696869 251.405792,293.270508 252.783020,292.925903 
	C253.471039,293.773315 254.085953,295.260315 254.354721,295.200165 
	C263.035645,293.257812 265.741730,300.356201 269.927521,305.653748 
	C259.406403,305.997559 248.811584,305.997559 237.271622,305.997559 
	C238.922226,304.045166 239.902924,302.885132 240.977921,301.404480 
z"/>
</svg>